<svg xmlns="http://www.w3.org/2000/svg" viewBox="229 72 814 880" width="814" height="880">
<g transform="translate(0.000000,1254.000000) scale(0.100000,-0.100000)"
  fill="#ffffff" stroke="none">
<path d="M6310 10907 c-150 -33 -274 -165 -343 -364 -38 -112 -49 -287 -23
-397 46 -194 146 -362 349 -588 38 -43 75 -78 82 -78 15 0 185 200 251 295 67
98 124 209 159 310 40 113 46 276 16 396 -30 122 -81 218 -158 300 -105 111
-214 152 -333 126z m158 -386 c53 -27 97 -77 129 -146 25 -53 28 -72 28 -155
-1 -146 -46 -254 -183 -438 -35 -46 -61 -72 -71 -70 -27 5 -148 166 -191 253
-55 114 -74 192 -67 282 16 218 195 356 355 274z"/>
<path d="M8164 9962 c-86 -30 -162 -83 -244 -169 -94 -100 -168 -237 -201
-378 -19 -78 -21 -109 -16 -240 5 -133 35 -336 52 -353 9 -9 122 17 231 53
139 46 267 112 357 184 294 237 379 650 172 839 -28 26 -73 55 -101 65 -64 23
-182 22 -250 -1z m66 -288 c111 -33 176 -146 152 -264 -36 -169 -166 -295
-386 -371 -44 -16 -93 -29 -107 -29 -25 0 -27 3 -39 81 -23 149 -2 308 54 418
40 77 131 153 204 170 54 13 63 13 122 -5z"/>
<path d="M4336 9946 c-210 -89 -273 -371 -141 -638 111 -226 335 -384 664
-468 131 -33 124 -37 149 83 73 341 42 564 -109 783 -69 99 -145 166 -247 217
-75 37 -92 41 -170 44 -75 3 -95 0 -146 -21z m352 -290 c50 -26 102 -76 139
-136 59 -97 85 -269 63 -423 -11 -80 -14 -87 -35 -87 -40 0 -157 41 -238 82
-207 107 -308 309 -232 463 24 51 76 99 125 118 40 15 132 6 178 -17z"/>
<path d="M6315 8864 c-66 -17 -95 -32 -143 -78 l-54 -50 -76 -1 c-85 -1 -136
-21 -184 -72 -69 -73 -93 -207 -51 -288 28 -52 88 -110 136 -130 30 -12 42
-26 58 -62 11 -25 18 -47 17 -48 -2 -1 -28 -15 -58 -31 -77 -41 -245 -209
-313 -314 -105 -162 -180 -340 -179 -423 2 -106 122 -163 230 -108 54 27 153
51 218 51 160 0 266 -113 252 -268 -15 -154 -183 -445 -425 -732 -63 -74 -108
-135 -108 -147 0 -1 -319 67 -730 157 -218 48 -277 49 -373 5 -69 -31 -155
-113 -188 -178 -40 -77 -58 -188 -44 -261 15 -81 49 -154 95 -205 l38 -42 -51
-52 c-28 -29 -64 -79 -79 -112 -25 -54 -28 -70 -28 -170 0 -105 2 -114 33
-177 23 -47 51 -84 93 -122 l61 -55 -40 -48 c-81 -95 -113 -222 -88 -341 9
-40 25 -89 35 -110 28 -54 128 -148 184 -172 l49 -22 -25 -26 c-38 -41 -63
-100 -77 -177 -22 -126 20 -246 118 -337 89 -84 158 -106 398 -128 l131 -12
29 -45 c43 -68 97 -109 239 -179 576 -286 1334 -285 1930 1 197 95 352 203
512 359 216 209 312 339 428 578 89 185 155 400 155 509 0 66 -22 132 -59 172
-52 57 -101 76 -233 87 -290 25 -488 106 -723 295 -203 164 -359 419 -388 632
-15 118 1 283 57 570 25 126 51 274 57 328 23 198 -3 485 -62 666 -27 84 -99
235 -140 296 -46 68 -184 208 -241 244 -40 26 -47 35 -42 53 13 43 35 76 50
76 29 0 90 39 131 83 68 73 85 180 44 273 -44 99 -116 146 -224 148 l-71 1
-45 48 c-25 27 -62 57 -82 67 -38 20 -120 32 -154 24z m105 -150 c80 -48 80
-167 0 -224 -21 -15 -30 -30 -30 -48 0 -15 -5 -71 -12 -124 -11 -90 -14 -98
-34 -98 -19 0 -22 7 -27 68 -4 37 -7 93 -7 125 0 53 -3 61 -31 85 -59 49 -71
119 -31 181 32 48 119 65 172 35z m-336 -118 c69 -29 96 -107 61 -177 -15 -28
-14 -35 10 -113 30 -100 32 -129 8 -124 -11 2 -29 33 -51 91 l-34 87 -37 0
c-41 0 -88 27 -107 62 -34 61 1 152 66 175 45 15 45 15 84 -1z m644 -22 c13
-9 30 -32 39 -52 34 -83 -16 -162 -109 -172 l-53 -5 -35 -82 c-25 -58 -40 -83
-52 -83 -24 0 -23 12 12 115 28 84 29 91 15 121 -20 42 -19 67 5 113 33 65
116 86 178 45z m-235 -529 c94 -33 169 -79 238 -148 245 -244 344 -667 264
-1137 -14 -85 -35 -195 -46 -245 -49 -223 -64 -480 -35 -616 37 -174 157 -382
313 -542 256 -263 569 -411 921 -434 88 -6 99 -9 124 -34 24 -24 28 -35 28
-87 0 -154 -113 -449 -257 -667 -230 -350 -577 -614 -983 -749 -236 -78 -434
-110 -695 -109 -267 0 -501 42 -739 132 -136 51 -290 132 -294 155 -3 16 4 17
90 10 165 -14 267 -9 329 15 75 29 141 88 176 159 24 48 28 69 28 142 0 74 -4
93 -27 139 -16 29 -28 57 -28 61 0 4 19 19 43 33 57 34 124 107 149 165 14 32
23 76 26 138 6 116 -12 174 -75 244 -24 27 -43 54 -41 58 1 5 28 29 58 53 42
34 65 64 95 123 38 75 40 83 40 170 0 79 -4 98 -28 148 -17 34 -50 77 -82 107
-30 27 -55 53 -55 57 0 3 25 30 55 60 73 70 107 143 113 245 2 43 -1 100 -8
128 -16 70 -78 162 -134 200 -54 38 -153 76 -219 86 -27 4 -51 13 -54 20 -2 8
46 76 107 152 312 387 449 678 410 869 -32 159 -156 271 -325 295 -80 11 -173
-1 -279 -37 -43 -14 -80 -23 -84 -20 -10 11 29 119 75 206 107 199 237 344
374 413 100 51 157 65 269 66 76 0 109 -4 163 -24z m-1348 -1915 c226 -49 495
-107 599 -130 199 -42 231 -55 289 -119 115 -128 62 -350 -99 -410 -30 -12
-74 -21 -98 -21 -52 0 -1117 212 -1211 241 -190 58 -255 281 -131 444 37 48
117 85 185 85 34 0 222 -36 466 -90z m-35 -656 c250 -52 529 -110 620 -129
203 -41 240 -55 289 -111 143 -163 15 -434 -204 -434 -33 0 -740 139 -1065
210 -145 31 -193 46 -225 68 -115 80 -153 218 -95 347 34 76 127 143 200 145
14 0 230 -43 480 -96z m-190 -614 c107 -23 350 -72 540 -110 190 -38 362 -75
383 -81 51 -17 116 -74 138 -123 39 -85 17 -210 -49 -279 -35 -38 -106 -73
-162 -81 -67 -10 -1105 191 -1177 228 -219 110 -145 480 97 485 19 1 123 -17
230 -39z m390 -709 c212 -40 398 -77 414 -83 81 -32 129 -134 106 -226 -25
-105 -105 -161 -228 -162 -115 0 -731 59 -791 76 -70 20 -154 100 -171 165
-32 116 14 231 110 282 72 38 78 37 560 -52z"/>
<path d="M6175 7855 c-17 -16 -25 -35 -25 -59 0 -48 8 -65 41 -81 40 -21 63
-19 98 11 63 53 28 154 -54 154 -25 0 -44 -8 -60 -25z"/>
<path d="M3320 8329 c-121 -21 -219 -90 -267 -187 -25 -51 -28 -67 -27 -152 1
-113 20 -171 93 -282 100 -152 257 -260 467 -320 68 -19 103 -22 254 -23 176
0 294 9 319 25 12 7 12 23 1 101 -31 233 -96 405 -203 544 -158 206 -427 330
-637 294z m389 -279 c70 -37 145 -114 189 -193 40 -70 83 -210 85 -277 l2 -55
-75 -8 c-152 -17 -319 14 -421 78 -53 34 -113 97 -135 143 -23 47 -30 149 -14
197 46 140 220 194 369 115z"/>
<path d="M9230 8320 c-235 -44 -443 -212 -560 -454 -64 -131 -120 -344 -120
-453 0 -31 0 -31 68 -40 37 -4 148 -8 247 -7 151 1 193 4 260 23 103 27 264
106 337 165 194 155 279 415 194 590 -52 105 -169 175 -304 181 -42 2 -97 0
-122 -5z m48 -267 c139 -85 145 -273 14 -401 -112 -108 -276 -155 -486 -137
l-86 7 0 31 c0 50 39 176 80 262 61 127 164 229 264 261 65 22 158 12 214 -23z"/>
</g>
<g transform="translate(0.000000,1254.000000) scale(0.100000,-0.100000)"
  fill="#ffffff" stroke="#ffffff" stroke-width="90" stroke-linejoin="round" stroke-linecap="round" >
<path d="M6310 11634 c-172 -46 -392 -289 -539 -594 -138 -289 -200 -550 -201
-845 0 -380 94 -761 315 -1276 36 -84 67 -155 70 -157 2 -2 30 17 61 43 179
146 414 177 595 79 51 -28 155 -127 165 -156 9 -29 30 -21 46 20 9 20 46 103
82 185 204 454 306 859 306 1222 0 333 -73 633 -232 950 -143 285 -331 488
-493 530 -72 18 -103 18 -175 -1z m203 -781 c70 -39 168 -148 211 -235 153
-311 75 -611 -260 -1004 l-89 -105 -53 58 c-203 223 -312 406 -358 599 -12 50
-15 97 -11 169 13 269 178 511 377 551 65 13 114 4 183 -33z"/>
<path d="M3961 10559 c-109 -43 -193 -162 -243 -344 -19 -70 -22 -106 -22
-295 -1 -219 4 -265 46 -435 70 -284 226 -591 431 -845 33 -41 213 -228 398
-415 186 -187 373 -380 415 -430 110 -130 247 -315 316 -427 33 -54 65 -98 72
-98 24 0 124 474 166 790 104 782 -31 1422 -398 1882 -218 273 -531 507 -802
599 -81 27 -112 33 -210 36 -99 3 -122 0 -169 -18z m672 -657 c101 -50 177
-117 246 -216 142 -205 177 -422 116 -711 -15 -71 -28 -131 -30 -133 -1 -2
-39 6 -84 18 -334 85 -556 242 -669 474 -123 251 -61 506 144 592 88 37 169
30 277 -24z"/>
<path d="M8530 10561 c-106 -30 -219 -77 -315 -132 -432 -247 -769 -664 -919
-1137 -156 -495 -151 -1055 19 -1886 19 -93 35 -173 35 -177 0 -5 8 -9 18 -9
11 0 35 31 67 87 143 248 341 487 740 893 324 329 433 454 550 624 330 481
459 1182 286 1552 -37 78 -86 132 -153 169 -48 27 -64 30 -158 32 -78 2 -121
-2 -170 -16z m-136 -618 c71 -26 147 -98 181 -175 39 -86 44 -170 16 -277 -69
-265 -264 -463 -571 -578 -71 -27 -242 -75 -247 -69 -13 13 -45 224 -50 331
-7 165 14 263 88 413 40 81 68 120 129 185 152 160 312 220 454 170z"/>
<path d="M2812 8794 c-139 -30 -257 -114 -307 -219 -79 -165 -43 -427 100
-720 145 -296 342 -535 607 -735 292 -221 483 -305 1222 -540 176 -56 431
-142 568 -191 136 -49 255 -89 263 -89 12 0 14 7 9 28 -127 579 -374 1117
-709 1547 -404 519 -879 843 -1350 920 -111 18 -318 18 -403 -1z m713 -500
c144 -34 310 -146 412 -279 103 -134 162 -283 197 -505 12 -72 13 -96 4 -101
-23 -15 -144 -24 -298 -24 -130 1 -168 5 -234 23 -261 75 -455 237 -537 450
-33 87 -32 191 4 264 48 97 148 167 267 186 61 10 97 7 185 -14z"/>
<path d="M9460 8776 c-292 -60 -530 -181 -795 -403 -416 -348 -781 -845 -1000
-1361 -127 -301 -222 -654 -254 -942 -21 -195 -24 -260 -11 -260 7 0 67 52
134 116 194 187 354 310 565 436 125 75 461 243 656 328 423 185 626 306 859
510 464 404 757 1065 611 1374 -28 59 -91 124 -152 154 -96 49 -171 64 -338
68 -139 3 -175 1 -275 -20z m15 -505 c81 -37 129 -81 160 -146 50 -100 42
-213 -24 -343 -67 -133 -165 -224 -326 -303 -130 -64 -230 -89 -380 -96 -102
-5 -321 10 -334 22 -1 2 2 37 9 77 57 354 214 608 460 741 167 91 311 107 435
48z"/>










</g>
<g transform="translate(0.000000,1254.000000) scale(0.100000,-0.100000)"
  fill="#1d9d8a" stroke="none">
<path d="M6310 11634 c-172 -46 -392 -289 -539 -594 -138 -289 -200 -550 -201
-845 0 -380 94 -761 315 -1276 36 -84 67 -155 70 -157 2 -2 30 17 61 43 179
146 414 177 595 79 51 -28 155 -127 165 -156 9 -29 30 -21 46 20 9 20 46 103
82 185 204 454 306 859 306 1222 0 333 -73 633 -232 950 -143 285 -331 488
-493 530 -72 18 -103 18 -175 -1z m203 -781 c70 -39 168 -148 211 -235 153
-311 75 -611 -260 -1004 l-89 -105 -53 58 c-203 223 -312 406 -358 599 -12 50
-15 97 -11 169 13 269 178 511 377 551 65 13 114 4 183 -33z"/>
<path d="M3961 10559 c-109 -43 -193 -162 -243 -344 -19 -70 -22 -106 -22
-295 -1 -219 4 -265 46 -435 70 -284 226 -591 431 -845 33 -41 213 -228 398
-415 186 -187 373 -380 415 -430 110 -130 247 -315 316 -427 33 -54 65 -98 72
-98 24 0 124 474 166 790 104 782 -31 1422 -398 1882 -218 273 -531 507 -802
599 -81 27 -112 33 -210 36 -99 3 -122 0 -169 -18z m672 -657 c101 -50 177
-117 246 -216 142 -205 177 -422 116 -711 -15 -71 -28 -131 -30 -133 -1 -2
-39 6 -84 18 -334 85 -556 242 -669 474 -123 251 -61 506 144 592 88 37 169
30 277 -24z"/>
<path d="M8530 10561 c-106 -30 -219 -77 -315 -132 -432 -247 -769 -664 -919
-1137 -156 -495 -151 -1055 19 -1886 19 -93 35 -173 35 -177 0 -5 8 -9 18 -9
11 0 35 31 67 87 143 248 341 487 740 893 324 329 433 454 550 624 330 481
459 1182 286 1552 -37 78 -86 132 -153 169 -48 27 -64 30 -158 32 -78 2 -121
-2 -170 -16z m-136 -618 c71 -26 147 -98 181 -175 39 -86 44 -170 16 -277 -69
-265 -264 -463 -571 -578 -71 -27 -242 -75 -247 -69 -13 13 -45 224 -50 331
-7 165 14 263 88 413 40 81 68 120 129 185 152 160 312 220 454 170z"/>
<path d="M2812 8794 c-139 -30 -257 -114 -307 -219 -79 -165 -43 -427 100
-720 145 -296 342 -535 607 -735 292 -221 483 -305 1222 -540 176 -56 431
-142 568 -191 136 -49 255 -89 263 -89 12 0 14 7 9 28 -127 579 -374 1117
-709 1547 -404 519 -879 843 -1350 920 -111 18 -318 18 -403 -1z m713 -500
c144 -34 310 -146 412 -279 103 -134 162 -283 197 -505 12 -72 13 -96 4 -101
-23 -15 -144 -24 -298 -24 -130 1 -168 5 -234 23 -261 75 -455 237 -537 450
-33 87 -32 191 4 264 48 97 148 167 267 186 61 10 97 7 185 -14z"/>
<path d="M9460 8776 c-292 -60 -530 -181 -795 -403 -416 -348 -781 -845 -1000
-1361 -127 -301 -222 -654 -254 -942 -21 -195 -24 -260 -11 -260 7 0 67 52
134 116 194 187 354 310 565 436 125 75 461 243 656 328 423 185 626 306 859
510 464 404 757 1065 611 1374 -28 59 -91 124 -152 154 -96 49 -171 64 -338
68 -139 3 -175 1 -275 -20z m15 -505 c81 -37 129 -81 160 -146 50 -100 42
-213 -24 -343 -67 -133 -165 -224 -326 -303 -130 -64 -230 -89 -380 -96 -102
-5 -321 10 -334 22 -1 2 2 37 9 77 57 354 214 608 460 741 167 91 311 107 435
48z"/>










</g>
<g transform="translate(0.000000,1254.000000) scale(0.100000,-0.100000)"
  fill="#ffffff" stroke="#ffffff" stroke-width="90" stroke-linejoin="round" stroke-linecap="round" >
<path d="M6283 10554 c-113 -41 -183 -155 -191 -309 -8 -155 50 -309 176 -466
59 -74 71 -84 103 -87 34 -3 39 1 90 70 81 108 127 186 157 269 23 64 27 89
27 189 0 105 -2 120 -28 175 -51 110 -126 165 -232 171 -37 2 -76 -2 -102 -12z"/>
<path d="M8088 9699 c-73 -17 -164 -93 -204 -170 -57 -112 -79 -290 -54 -455
l12 -84 45 0 c83 0 267 76 360 148 89 70 163 213 163 316 0 180 -142 288 -322
245z"/>
<path d="M4490 9693 c-49 -19 -101 -67 -125 -118 -24 -49 -27 -63 -24 -142 5
-111 37 -181 120 -263 92 -91 287 -180 394 -180 l43 0 12 87 c17 116 7 282
-21 365 -37 111 -100 193 -181 234 -39 20 -62 24 -125 23 -43 0 -85 -3 -93 -6z"/>
<path d="M6275 8736 c-40 -17 -64 -55 -71 -110 -8 -58 10 -108 52 -145 31 -28
34 -35 34 -88 0 -32 3 -88 7 -125 l6 -68 41 0 42 0 12 98 c7 53 12 109 12 124
0 18 9 33 30 48 42 30 60 70 60 135 0 98 -46 145 -142 145 -29 -1 -67 -7 -83
-14z"/>
<path d="M5980 8617 c-51 -18 -80 -67 -80 -136 1 -31 6 -66 14 -79 19 -35 66
-62 107 -62 l37 0 34 -87 c33 -87 34 -88 71 -91 l37 -3 0 41 c0 23 -10 73 -21
112 -17 56 -19 75 -10 94 6 14 11 51 11 83 0 45 -5 65 -22 86 -39 50 -107 66
-178 42z"/>
<path d="M6587 8603 c-64 -26 -95 -119 -67 -199 8 -24 5 -44 -15 -103 -14 -41
-25 -89 -25 -108 0 -32 2 -33 38 -33 37 0 37 1 72 83 l35 82 53 5 c41 4 59 12
84 37 27 27 32 41 35 90 9 128 -89 196 -210 146z"/>
<path d="M3480 8101 c-79 -26 -141 -83 -161 -149 -16 -55 -8 -188 15 -234 79
-163 319 -251 596 -221 l75 8 -1 75 c-4 196 -124 409 -276 490 -54 29 -74 34
-143 37 -44 1 -91 -1 -105 -6z"/>
<path d="M9044 8096 c-57 -18 -124 -66 -179 -128 -83 -95 -165 -300 -165 -415
l0 -51 87 -7 c293 -25 509 59 593 230 21 41 25 65 25 136 0 78 -3 90 -30 134
-19 30 -49 61 -78 79 -41 25 -60 30 -130 33 -50 2 -98 -2 -123 -11z"/>
<path d="M6165 8075 c-143 -40 -301 -160 -402 -307 -102 -148 -173 -302 -173
-375 0 -29 3 -33 28 -33 15 0 61 12 102 26 41 13 101 28 132 33 203 28 388
-98 427 -289 34 -167 -111 -463 -409 -833 -96 -119 -111 -143 -108 -170 3 -30
6 -32 63 -43 141 -29 237 -86 295 -175 95 -147 74 -320 -55 -443 -73 -71 -73
-91 0 -157 77 -71 110 -142 110 -236 -1 -64 -5 -81 -40 -150 -31 -61 -52 -87
-97 -123 -74 -58 -76 -82 -14 -151 60 -66 80 -130 73 -225 -3 -40 -14 -93 -25
-117 -25 -57 -92 -131 -149 -164 -53 -31 -56 -57 -15 -134 75 -146 -8 -337
-174 -398 -66 -25 -120 -28 -292 -17 l-133 8 3 -38 c3 -36 6 -39 94 -86 181
-96 418 -171 651 -204 142 -21 453 -24 593 -5 607 78 1103 375 1413 846 152
231 257 512 257 687 0 73 -2 82 -28 107 -25 25 -36 28 -124 34 -352 23 -665
171 -921 434 -156 160 -276 368 -313 542 -27 130 -14 353 35 576 85 387 97
675 37 935 -58 252 -202 478 -369 578 -103 62 -178 82 -307 81 -64 0 -137 -7
-165 -14z m110 -240 c33 -32 31 -58 -6 -89 -28 -24 -32 -25 -58 -11 -28 14
-41 33 -41 61 0 20 45 64 65 64 9 0 27 -11 40 -25z"/>
<path d="M4552 6214 c-91 -45 -142 -140 -142 -262 0 -143 68 -242 195 -281
118 -37 1163 -241 1231 -241 175 0 280 109 279 290 -1 82 -18 132 -62 181 -58
64 -90 77 -289 119 -104 23 -373 81 -599 130 -469 103 -523 109 -613 64z"/>
<path d="M4546 5575 c-50 -17 -113 -78 -137 -132 -44 -96 -33 -240 25 -315 59
-79 93 -94 296 -138 402 -87 1036 -210 1085 -210 165 0 275 103 283 268 5 94
-11 151 -59 206 -49 56 -86 70 -289 111 -91 19 -370 77 -620 129 -250 53 -475
96 -500 96 -25 -1 -62 -7 -84 -15z"/>
<path d="M4602 4907 c-155 -57 -216 -302 -111 -447 54 -74 82 -83 673 -197
466 -90 550 -104 605 -98 109 10 189 64 230 155 28 60 29 187 2 246 -22 49
-87 106 -138 123 -21 6 -193 43 -383 81 -190 38 -433 87 -540 110 -199 41
-280 47 -338 27z"/>
<path d="M4730 4223 c-79 -41 -112 -98 -118 -201 -6 -110 9 -154 72 -218 41
-40 66 -56 107 -68 65 -18 679 -76 811 -76 78 0 101 4 138 23 91 46 136 150
113 262 -14 67 -43 108 -97 134 -50 25 -773 162 -891 168 -74 5 -84 3 -135
-24z"/>













</g>
<g transform="translate(0.000000,1254.000000) scale(0.100000,-0.100000)"
  fill="#66517c" stroke="none">
<path d="M6283 10554 c-113 -41 -183 -155 -191 -309 -8 -155 50 -309 176 -466
59 -74 71 -84 103 -87 34 -3 39 1 90 70 81 108 127 186 157 269 23 64 27 89
27 189 0 105 -2 120 -28 175 -51 110 -126 165 -232 171 -37 2 -76 -2 -102 -12z"/>
<path d="M8088 9699 c-73 -17 -164 -93 -204 -170 -57 -112 -79 -290 -54 -455
l12 -84 45 0 c83 0 267 76 360 148 89 70 163 213 163 316 0 180 -142 288 -322
245z"/>
<path d="M4490 9693 c-49 -19 -101 -67 -125 -118 -24 -49 -27 -63 -24 -142 5
-111 37 -181 120 -263 92 -91 287 -180 394 -180 l43 0 12 87 c17 116 7 282
-21 365 -37 111 -100 193 -181 234 -39 20 -62 24 -125 23 -43 0 -85 -3 -93 -6z"/>
<path d="M6275 8736 c-40 -17 -64 -55 -71 -110 -8 -58 10 -108 52 -145 31 -28
34 -35 34 -88 0 -32 3 -88 7 -125 l6 -68 41 0 42 0 12 98 c7 53 12 109 12 124
0 18 9 33 30 48 42 30 60 70 60 135 0 98 -46 145 -142 145 -29 -1 -67 -7 -83
-14z"/>
<path d="M5980 8617 c-51 -18 -80 -67 -80 -136 1 -31 6 -66 14 -79 19 -35 66
-62 107 -62 l37 0 34 -87 c33 -87 34 -88 71 -91 l37 -3 0 41 c0 23 -10 73 -21
112 -17 56 -19 75 -10 94 6 14 11 51 11 83 0 45 -5 65 -22 86 -39 50 -107 66
-178 42z"/>
<path d="M6587 8603 c-64 -26 -95 -119 -67 -199 8 -24 5 -44 -15 -103 -14 -41
-25 -89 -25 -108 0 -32 2 -33 38 -33 37 0 37 1 72 83 l35 82 53 5 c41 4 59 12
84 37 27 27 32 41 35 90 9 128 -89 196 -210 146z"/>
<path d="M3480 8101 c-79 -26 -141 -83 -161 -149 -16 -55 -8 -188 15 -234 79
-163 319 -251 596 -221 l75 8 -1 75 c-4 196 -124 409 -276 490 -54 29 -74 34
-143 37 -44 1 -91 -1 -105 -6z"/>
<path d="M9044 8096 c-57 -18 -124 -66 -179 -128 -83 -95 -165 -300 -165 -415
l0 -51 87 -7 c293 -25 509 59 593 230 21 41 25 65 25 136 0 78 -3 90 -30 134
-19 30 -49 61 -78 79 -41 25 -60 30 -130 33 -50 2 -98 -2 -123 -11z"/>
<path d="M6165 8075 c-143 -40 -301 -160 -402 -307 -102 -148 -173 -302 -173
-375 0 -29 3 -33 28 -33 15 0 61 12 102 26 41 13 101 28 132 33 203 28 388
-98 427 -289 34 -167 -111 -463 -409 -833 -96 -119 -111 -143 -108 -170 3 -30
6 -32 63 -43 141 -29 237 -86 295 -175 95 -147 74 -320 -55 -443 -73 -71 -73
-91 0 -157 77 -71 110 -142 110 -236 -1 -64 -5 -81 -40 -150 -31 -61 -52 -87
-97 -123 -74 -58 -76 -82 -14 -151 60 -66 80 -130 73 -225 -3 -40 -14 -93 -25
-117 -25 -57 -92 -131 -149 -164 -53 -31 -56 -57 -15 -134 75 -146 -8 -337
-174 -398 -66 -25 -120 -28 -292 -17 l-133 8 3 -38 c3 -36 6 -39 94 -86 181
-96 418 -171 651 -204 142 -21 453 -24 593 -5 607 78 1103 375 1413 846 152
231 257 512 257 687 0 73 -2 82 -28 107 -25 25 -36 28 -124 34 -352 23 -665
171 -921 434 -156 160 -276 368 -313 542 -27 130 -14 353 35 576 85 387 97
675 37 935 -58 252 -202 478 -369 578 -103 62 -178 82 -307 81 -64 0 -137 -7
-165 -14z m110 -240 c33 -32 31 -58 -6 -89 -28 -24 -32 -25 -58 -11 -28 14
-41 33 -41 61 0 20 45 64 65 64 9 0 27 -11 40 -25z"/>
<path d="M4552 6214 c-91 -45 -142 -140 -142 -262 0 -143 68 -242 195 -281
118 -37 1163 -241 1231 -241 175 0 280 109 279 290 -1 82 -18 132 -62 181 -58
64 -90 77 -289 119 -104 23 -373 81 -599 130 -469 103 -523 109 -613 64z"/>
<path d="M4546 5575 c-50 -17 -113 -78 -137 -132 -44 -96 -33 -240 25 -315 59
-79 93 -94 296 -138 402 -87 1036 -210 1085 -210 165 0 275 103 283 268 5 94
-11 151 -59 206 -49 56 -86 70 -289 111 -91 19 -370 77 -620 129 -250 53 -475
96 -500 96 -25 -1 -62 -7 -84 -15z"/>
<path d="M4602 4907 c-155 -57 -216 -302 -111 -447 54 -74 82 -83 673 -197
466 -90 550 -104 605 -98 109 10 189 64 230 155 28 60 29 187 2 246 -22 49
-87 106 -138 123 -21 6 -193 43 -383 81 -190 38 -433 87 -540 110 -199 41
-280 47 -338 27z"/>
<path d="M4730 4223 c-79 -41 -112 -98 -118 -201 -6 -110 9 -154 72 -218 41
-40 66 -56 107 -68 65 -18 679 -76 811 -76 78 0 101 4 138 23 91 46 136 150
113 262 -14 67 -43 108 -97 134 -50 25 -773 162 -891 168 -74 5 -84 3 -135
-24z"/>













</g>
</svg>
