<svg xmlns="http://www.w3.org/2000/svg" viewBox="0 0 1536 1024" width="1536" height="1024">
<g transform="translate(0.000000,1024.000000) scale(0.100000,-0.100000)"
  fill="#ffffff" stroke="none">
<path d="M7825 9011 c-102 -25 -227 -136 -293 -260 -50 -93 -72 -183 -72 -296
0 -105 19 -178 80 -300 56 -114 209 -355 225 -355 6 0 25 19 42 43 39 54 164
216 222 287 66 81 127 218 142 317 14 96 0 225 -34 302 -46 106 -143 216 -221
252 -45 20 -47 20 -91 10z m63 -326 c80 -34 130 -110 139 -212 9 -113 -21
-177 -177 -376 -41 -53 -81 -96 -87 -96 -23 -2 -123 182 -158 288 -75 229 99
472 283 396z"/>
<path d="M6041 8398 c-90 -92 -125 -283 -82 -450 27 -107 64 -174 132 -240 72
-70 133 -110 292 -189 100 -51 189 -105 283 -174 9 -6 17 -6 23 0 5 6 20 96
32 200 29 256 23 366 -26 488 -76 188 -236 334 -420 383 -27 8 -84 14 -126 14
-73 0 -78 -1 -108 -32z m395 -246 c78 -41 141 -128 170 -234 22 -84 16 -388
-8 -388 -5 0 -28 13 -51 28 -23 16 -91 55 -151 88 -229 124 -303 244 -246 397
46 122 169 169 286 109z"/>
<path d="M9285 8186 c-149 -47 -321 -188 -392 -321 -43 -81 -72 -190 -79 -300
-5 -72 -2 -119 17 -224 13 -74 28 -135 35 -138 6 -2 62 21 124 52 62 31 162
77 224 102 150 61 231 111 308 191 114 119 154 235 145 418 -7 150 -30 192
-121 219 -60 18 -205 19 -261 1z m75 -246 c59 -30 93 -88 98 -166 8 -118 -56
-198 -228 -284 -144 -72 -269 -123 -285 -116 -12 4 -15 25 -15 93 1 251 107
438 280 494 36 12 104 2 150 -21z"/>
<path d="M5114 7255 c-72 -15 -118 -37 -156 -73 -26 -24 -28 -32 -28 -101 0
-149 52 -267 169 -381 80 -79 153 -124 259 -159 48 -17 105 -24 250 -31 103
-5 229 -12 280 -14 72 -4 92 -3 92 8 0 46 -126 349 -189 455 -82 139 -267 275
-410 301 -73 14 -193 11 -267 -5z m358 -155 c55 -16 127 -70 181 -136 68 -84
192 -333 174 -350 -6 -6 -229 12 -332 27 -38 5 -91 16 -116 25 -144 47 -230
225 -167 344 44 81 154 119 260 90z"/>
<path d="M9914 6806 c-50 -13 -115 -36 -145 -50 -120 -57 -225 -165 -298 -306
-64 -125 -166 -400 -148 -400 1 0 36 7 78 14 41 8 163 20 270 26 107 6 226 18
264 25 168 35 337 163 406 310 42 91 59 161 59 242 0 50 -3 59 -33 87 -77 72
-286 96 -453 52z m60 -147 c54 -13 114 -62 132 -105 19 -46 17 -121 -5 -170
-24 -53 -83 -112 -135 -135 -45 -19 -174 -35 -360 -44 l-119 -5 6 30 c4 16 32
82 63 147 43 91 68 129 113 173 99 99 200 136 305 109z"/>
<path d="M7472 6757 c-27 -29 -29 -78 -4 -100 23 -21 81 -22 110 -1 31 21 31
87 0 108 -33 23 -81 20 -106 -7z"/>
</g>
<g transform="translate(0.000000,1024.000000) scale(0.100000,-0.100000)"
  fill="#1d9d8a" stroke="none">
<path d="M7900 9600 c-25 -21 -50 -39 -55 -40 -13 0 -104 -94 -175 -180 -30
-36 -57 -69 -62 -74 -5 -6 -8 -6 -8 1 0 9 45 70 127 172 16 19 23 32 17 28 -7
-4 -36 -36 -64 -71 -29 -36 -59 -66 -66 -68 -20 -5 -119 -123 -179 -213 -130
-197 -186 -365 -226 -677 -10 -76 -10 -121 0 -215 17 -162 46 -344 71 -430 23
-84 25 -98 7 -63 -24 46 -64 196 -112 418 -3 12 -10 22 -15 22 -6 0 -10 -10
-10 -22 0 -39 28 -260 39 -313 6 -27 13 -64 15 -81 3 -29 17 -79 57 -208 11
-33 19 -63 19 -68 0 -5 7 -25 15 -45 18 -44 34 -35 60 35 10 26 34 71 53 101
37 56 84 84 167 100 74 14 154 -31 206 -116 l20 -33 41 21 c57 29 102 19 153
-35 23 -23 48 -58 57 -77 23 -48 37 -143 31 -211 -3 -35 -2 -58 4 -58 6 0 23
35 38 78 15 42 47 118 71 169 46 96 54 120 29 87 -8 -10 -14 -14 -15 -9 0 14
54 172 74 215 19 43 103 282 144 410 47 149 86 367 78 434 -11 87 -29 74 -41
-30 -7 -64 -24 -128 -32 -121 -2 3 1 42 8 87 22 155 -32 517 -107 710 -60 155
-178 354 -219 370 -13 5 -26 13 -29 19 -4 5 -24 8 -46 6 -22 -3 -40 0 -40 5 0
25 -57 8 -100 -30z m36 -642 c60 -41 136 -134 173 -213 93 -199 48 -409 -140
-646 -46 -59 -111 -141 -143 -183 -33 -42 -63 -73 -67 -69 -26 27 -158 244
-199 328 -80 161 -96 262 -65 408 31 145 149 307 275 376 71 40 106 39 166 -1z"/>
<path d="M8310 9396 c0 -3 11 -31 24 -63 41 -96 78 -194 80 -211 4 -23 20 -25
39 -4 16 18 14 26 -45 150 -46 97 -67 132 -80 132 -10 0 -18 -2 -18 -4z"/>
<path d="M5795 8927 c-50 -19 -65 -30 -96 -74 -37 -53 -57 -122 -38 -133 6 -4
4 -33 -7 -81 -11 -52 -17 -130 -18 -264 -1 -166 2 -201 21 -277 23 -91 65
-213 106 -313 42 -101 41 -113 -2 -46 -72 109 -104 190 -175 444 -9 31 -21 57
-26 57 -17 0 -11 -53 16 -156 14 -55 32 -126 40 -159 39 -164 112 -293 248
-435 83 -86 150 -170 138 -170 -6 0 -19 10 -29 23 -10 12 -30 31 -43 42 -56
46 67 -89 143 -157 45 -40 111 -103 147 -139 36 -37 92 -90 125 -120 39 -34
27 -19 -35 44 -52 53 -89 97 -82 97 18 0 304 -292 376 -384 61 -79 146 -202
146 -212 0 -3 11 -20 24 -37 13 -18 42 -66 64 -107 22 -41 56 -101 75 -132 19
-32 40 -71 47 -88 23 -55 40 -27 40 68 0 49 -23 112 -41 112 -4 0 -16 22 -28
49 -24 56 -26 109 -9 194 10 47 20 65 50 93 21 19 44 34 51 34 27 0 57 83 57
156 0 38 4 86 9 107 8 32 7 36 -5 26 -12 -9 -14 -6 -15 22 0 19 -2 52 -4 73
-2 21 0 46 5 55 7 11 9 -1 10 -43 0 -47 3 -57 15 -52 8 3 15 1 15 -4 0 -6 4
-10 8 -10 21 0 -7 489 -29 516 -5 6 -12 48 -15 94 -6 97 -44 291 -79 404 -40
128 -87 236 -103 236 -8 0 -12 -6 -9 -13 21 -54 70 -222 78 -262 5 -27 16 -74
24 -104 8 -30 13 -57 10 -59 -5 -6 -4 -11 -46 143 -30 110 -140 385 -185 462
-11 18 -25 33 -31 33 -17 0 -17 0 8 -62 36 -91 39 -98 35 -98 -3 0 -15 17 -27
38 -13 20 -25 39 -29 42 -3 3 -18 24 -34 48 -31 45 -170 177 -291 275 -38 31
-83 68 -99 81 -39 33 -154 91 -163 82 -4 -4 -1 -11 7 -16 8 -6 11 -10 5 -10
-5 -1 4 -8 20 -17 45 -25 12 -28 -39 -4 -24 11 -72 30 -107 41 -84 28 -102 39
-69 40 22 1 23 2 7 11 -34 20 -100 18 -162 -4z m460 -531 c183 -49 344 -196
419 -382 49 -119 54 -214 27 -447 -12 -98 -21 -182 -21 -187 0 -5 -35 15 -77
44 -43 30 -133 81 -200 115 -159 79 -220 119 -293 190 -69 68 -111 148 -136
261 -31 138 6 305 87 388 28 29 37 32 88 32 31 0 79 -6 106 -14z m-100 -1214
c-6 -6 -40 21 -65 52 -22 28 -20 27 22 -9 25 -22 45 -41 43 -43z m69 -64 c-7
-11 -43 24 -37 35 3 5 13 1 24 -9 10 -9 16 -21 13 -26z"/>
<path d="M9758 8625 c-1 -2 -38 -8 -81 -14 -43 -6 -104 -20 -135 -30 -121 -42
-192 -69 -204 -78 -26 -20 -41 -26 -34 -15 9 15 -22 5 -44 -14 -9 -7 -40 -24
-70 -38 -39 -18 -80 -51 -140 -113 -101 -104 -174 -184 -212 -233 -62 -79 -61
-78 -47 -50 7 14 27 48 45 77 58 90 77 133 60 133 -17 0 -132 -159 -189 -260
-205 -364 -321 -624 -396 -885 -56 -195 -136 -600 -125 -630 9 -21 24 -8 24
21 0 13 4 24 8 24 10 0 6 -42 -14 -175 -8 -55 -19 -143 -25 -195 -6 -52 -14
-126 -19 -165 -5 -38 -12 -145 -16 -237 l-7 -168 26 0 c21 0 25 4 22 26 -2 18
13 50 48 103 28 42 93 148 145 236 123 210 193 302 367 484 139 145 377 341
475 391 48 24 45 10 -5 -23 -113 -76 -167 -119 -237 -185 -71 -68 -148 -159
-148 -176 0 -20 36 7 148 113 70 65 150 137 178 159 29 23 88 74 132 114 43
40 109 97 146 126 36 29 66 60 66 68 0 8 -2 14 -4 14 -2 0 -48 -30 -103 -66
-54 -36 -118 -77 -143 -90 -25 -13 -60 -33 -79 -44 -19 -11 -37 -18 -39 -15
-6 6 51 54 65 55 6 0 13 3 15 8 11 25 210 162 235 162 6 0 18 9 28 20 10 11
41 34 69 52 92 58 309 288 271 288 -9 0 -48 -25 -67 -42 -10 -10 -28 -18 -40
-18 -12 0 -30 -7 -40 -17 -10 -9 -18 -11 -18 -5 0 6 8 17 18 24 9 7 25 24 33
38 9 14 29 39 46 55 107 110 221 304 243 415 4 19 15 69 24 110 19 93 49 331
41 338 -11 11 -17 -9 -31 -90 -7 -46 -19 -114 -25 -153 -6 -38 -18 -81 -26
-95 l-14 -25 6 30 c22 101 45 263 49 340 3 43 8 61 33 112 29 60 0 142 -60
167 -61 26 -216 54 -229 41z m-232 -460 c87 -25 112 -67 121 -198 10 -160 -35
-284 -145 -399 -77 -80 -158 -130 -308 -191 -62 -25 -158 -69 -214 -97 -56
-28 -103 -50 -105 -48 -1 2 -13 61 -25 131 -25 144 -22 227 12 351 48 176 175
322 358 416 100 51 210 64 306 35z"/>
<path d="M8618 7958 c-74 -109 -97 -147 -142 -236 -54 -108 -62 -132 -44 -132
13 0 61 75 113 175 12 22 47 83 78 137 31 53 57 101 57 107 0 25 -22 7 -62
-51z"/>
<path d="M8392 7928 c-5 -19 -5 -34 0 -37 13 -4 17 2 28 38 7 24 6 31 -5 31
-8 0 -18 -15 -23 -32z"/>
<path d="M4985 7544 c-11 -2 -55 -6 -98 -9 -48 -4 -83 -12 -92 -22 -11 -11
-26 -13 -55 -8 -26 4 -46 3 -55 -5 -7 -6 -22 -10 -32 -9 -20 2 -38 -3 -101
-32 -24 -11 -47 -17 -52 -14 -16 10 -89 -94 -105 -148 l-15 -51 45 -74 c25
-40 49 -88 53 -105 8 -35 67 -133 125 -208 43 -56 45 -64 15 -48 -20 10 -20 8
5 -18 15 -16 24 -33 20 -38 -5 -5 1 -3 12 5 11 8 17 11 13 6 -4 -4 2 -17 12
-29 11 -11 17 -24 14 -28 -3 -5 12 -23 33 -41 20 -18 71 -64 113 -102 76 -70
174 -139 243 -171 20 -9 37 -21 37 -26 0 -12 -17 -11 -25 1 -4 6 -10 8 -15 5
-5 -3 -30 3 -54 15 -25 11 -48 20 -52 20 -16 0 -190 93 -217 116 -30 25 -47
30 -47 15 0 -14 113 -119 166 -155 51 -35 162 -86 249 -116 28 -10 82 -31 121
-48 38 -17 164 -53 279 -82 198 -48 495 -128 504 -136 15 -13 -14 -9 -79 12
-41 13 -93 26 -115 29 -48 7 -208 39 -325 65 -47 10 -121 27 -165 36 -44 9
-104 25 -134 36 -63 21 -61 21 -61 8 0 -5 19 -22 43 -37 60 -38 227 -123 242
-123 7 0 16 -7 19 -16 3 -8 11 -12 17 -8 9 5 11 -41 6 -187 -3 -107 -8 -204
-11 -216 -3 -13 -2 -22 2 -21 4 1 15 -2 25 -7 10 -4 23 -2 31 4 11 9 11 22 0
78 -15 79 -18 331 -4 353 6 10 10 11 10 3 0 -7 8 -12 18 -11 33 4 194 -35 217
-52 11 -9 131 -34 255 -55 l45 -7 -20 20 c-13 13 -60 29 -136 46 -63 15 -124
33 -135 40 -10 7 -34 17 -52 21 -18 4 -31 9 -29 12 11 10 341 -80 366 -100 7
-6 25 -13 40 -14 31 -4 101 -20 126 -30 15 -5 17 -2 12 16 -5 21 -4 22 46 16
34 -4 73 -1 112 9 85 23 142 20 305 -14 79 -16 145 -28 147 -26 2 2 -12 33
-32 70 -20 36 -32 66 -26 66 6 0 11 -4 11 -10 0 -5 7 -10 15 -10 14 0 14 4 -1
33 -9 17 -44 70 -78 117 -34 47 -99 148 -146 225 -89 148 -213 340 -280 430
-48 65 -218 245 -232 245 -5 0 -26 12 -46 28 -20 15 -32 20 -28 12 4 -8 -23
18 -60 58 -70 76 -199 183 -269 222 -93 52 -214 110 -275 130 -119 40 -295 59
-415 44z m-131 -42 c3 -5 0 -9 -7 -10 -45 -4 -145 -21 -159 -27 -10 -4 -18 -3
-18 3 0 5 39 16 88 24 48 8 88 16 89 17 1 0 4 -3 7 -7z m507 -262 c143 -26
328 -162 410 -301 55 -92 179 -382 179 -418 0 -7 -45 -5 -322 9 -145 7 -201
14 -250 31 -106 35 -179 80 -259 159 -111 108 -169 233 -169 361 0 47 4 59 28
81 76 71 240 105 383 78z m714 -228 c-6 -6 -35 18 -35 29 0 5 9 1 20 -8 11 -9
17 -19 15 -21z m89 -105 c20 -29 45 -64 57 -79 30 -40 14 -34 -24 9 -48 54
-99 133 -82 127 8 -3 30 -29 49 -57z m-735 -854 c3 -2 -6 -1 -20 1 -13 2 -28
5 -34 5 -5 1 -3 5 5 11 9 6 20 5 30 -3 8 -6 17 -13 19 -14z m824 -113 c37 -15
-49 -11 -118 5 l-60 15 78 -6 c43 -3 88 -9 100 -14z"/>
<path d="M5810 7471 c0 -4 12 -20 26 -35 15 -14 31 -26 35 -26 18 0 8 27 -16
48 -26 23 -45 28 -45 13z"/>
<path d="M7947 7162 c-36 -37 -43 -59 -39 -129 3 -56 27 -37 72 58 35 74 41
93 29 100 -21 13 -22 12 -62 -29z"/>
<path d="M10261 7098 c-110 -7 -293 -44 -356 -73 -158 -71 -195 -89 -225 -109
-19 -13 -75 -50 -125 -82 -120 -80 -193 -140 -349 -292 -120 -117 -162 -162
-235 -257 -14 -18 -52 -67 -85 -109 -52 -68 -80 -97 -60 -63 25 41 71 101 117
152 20 23 37 45 37 49 0 3 32 48 71 99 39 50 56 76 37 57 -18 -19 -46 -52 -62
-73 -16 -20 -35 -37 -41 -37 -24 0 -188 -222 -275 -375 -35 -60 -74 -123 -87
-139 -13 -16 -45 -65 -71 -110 -26 -44 -53 -90 -59 -101 -33 -53 -90 -185
-100 -230 -7 -27 -15 -63 -19 -80 -4 -16 -6 -34 -6 -38 1 -4 -5 -21 -13 -37
-15 -28 -14 -30 4 -30 10 0 21 7 25 15 10 27 22 16 24 -23 2 -21 -4 -56 -12
-79 l-14 -40 62 -42 c34 -22 66 -41 70 -41 4 0 20 10 35 21 16 12 34 18 40 15
6 -4 11 0 11 11 1 13 5 10 16 -10 9 -16 13 -35 10 -42 -2 -7 2 -16 11 -19 10
-4 31 12 61 46 26 28 65 65 88 82 23 17 86 65 140 107 96 73 253 173 343 219
58 29 250 107 322 130 31 10 75 28 97 39 43 22 72 27 72 12 0 -14 38 -20 44
-7 2 6 2 -7 -1 -29 -3 -29 -2 -36 6 -25 15 21 21 9 25 -46 5 -64 5 -64 15 -64
4 0 11 33 14 73 3 39 8 79 11 87 8 18 61 54 133 91 29 14 58 31 65 36 7 6 59
34 116 63 133 69 139 108 7 50 -36 -16 -177 -60 -232 -73 -13 -3 -23 0 -23 5
0 7 -4 7 -12 0 -19 -14 -58 -25 -58 -15 0 5 39 24 88 42 301 117 514 245 663
399 58 59 99 111 99 122 0 11 6 20 13 20 15 0 77 92 93 140 13 37 1 55 -18 29
-7 -10 -8 -7 -4 11 3 14 6 30 6 35 0 6 4 4 9 -4 7 -11 12 -7 24 16 9 16 23 35
31 42 11 9 16 30 16 63 0 27 4 47 9 44 14 -9 19 29 12 92 -5 43 -16 73 -43
114 -39 58 -61 80 -74 76 -5 -1 -21 5 -35 15 -14 9 -37 18 -52 19 -15 1 -27 5
-27 8 0 12 -68 30 -146 40 -122 15 -151 16 -273 8z m-7 -314 c79 -25 126 -69
126 -117 0 -62 -21 -139 -59 -222 -69 -147 -238 -275 -406 -310 -38 -7 -157
-19 -264 -25 -106 -6 -216 -15 -244 -21 -28 -5 -52 -7 -54 -5 -6 6 106 286
142 355 70 133 177 242 294 297 30 14 95 37 145 50 108 29 225 28 320 -2z
m531 -281 c-4 -15 -9 -36 -10 -46 -1 -9 -11 -28 -23 -40 -12 -13 -22 -27 -22
-33 -1 -5 -12 -22 -26 -39 -27 -33 -23 -17 13 51 12 23 29 44 38 48 9 3 15 11
14 18 -4 18 12 80 18 74 3 -3 2 -18 -2 -33z m-946 -756 c-8 -7 -225 -95 -264
-107 -45 -14 -85 -31 -235 -100 -58 -26 -130 -58 -160 -71 -110 -45 -352 -231
-494 -379 -36 -37 -43 -38 -43 -4 0 17 7 28 21 34 12 4 35 26 50 49 16 23 35
41 42 41 7 0 23 13 36 30 67 85 304 234 494 311 80 32 151 59 158 59 7 0 30 8
52 19 21 10 68 29 104 41 36 12 90 32 120 45 69 28 114 43 119 38 2 -2 2 -5 0
-6z m-1341 -252 c-6 -22 -22 -49 -35 -59 -24 -17 -24 -17 -15 0 5 11 16 33 23
49 15 33 30 57 35 53 1 -2 -2 -21 -8 -43z"/>
<path d="M4549 6885 c16 -30 40 -59 45 -54 2 2 -10 20 -26 39 -17 19 -25 26
-19 15z"/>
<path d="M6440 6865 c19 -19 36 -35 39 -35 3 0 -10 16 -29 35 -19 19 -36 35
-39 35 -3 0 10 -16 29 -35z"/>
<path d="M9840 5319 c0 -90 2 -100 18 -97 14 3 17 15 16 73 0 78 -10 125 -24
125 -6 0 -10 -42 -10 -101z"/>
<path d="M9355 4098 c-74 -27 -108 -93 -120 -238 -3 -41 -8 -86 -11 -99 -9
-43 -25 -1 -18 47 5 33 3 42 -8 42 -8 0 -15 -6 -16 -12 -17 -172 -11 -279 39
-678 5 -41 12 -127 15 -190 l5 -115 -40 -42 c-48 -51 -165 -129 -241 -160 -95
-39 -144 -28 -168 37 -9 24 -6 26 69 51 195 65 307 175 317 310 7 103 -11 137
-115 219 -12 10 -73 15 -152 12 -39 -2 -49 -7 -80 -43 -20 -23 -61 -69 -91
-103 -121 -133 -172 -232 -174 -338 l-1 -71 -65 -60 c-36 -33 -85 -73 -110
-89 -54 -35 -142 -62 -171 -53 -29 10 -59 63 -59 107 0 52 41 160 86 225 40
58 128 143 149 143 16 0 27 -27 15 -35 -15 -9 -12 -73 3 -78 36 -12 130 59
162 124 35 69 33 116 -7 163 -42 48 -91 56 -175 30 -169 -52 -325 -211 -403
-412 -23 -59 -44 -109 -46 -111 -2 -2 -3 67 -1 153 l2 158 -30 24 c-37 30 -88
31 -133 4 -41 -25 -93 -129 -91 -180 3 -62 -128 -369 -181 -424 -10 -10 -23
-15 -29 -12 -14 9 -14 187 -1 276 23 150 29 221 20 246 -12 30 -50 49 -83 40
-26 -6 -110 -88 -137 -132 -19 -32 -26 -30 -34 7 -15 74 -80 124 -211 159 -70
20 -96 21 -215 16 -176 -7 -391 -46 -462 -82 -20 -11 -38 -12 -68 -5 -22 5
-38 5 -35 1 3 -5 -10 -13 -28 -19 -44 -15 -199 -121 -263 -180 -68 -64 -86
-99 -82 -163 l3 -52 64 -33 c52 -27 75 -33 121 -32 31 1 66 -2 78 -5 20 -7 21
-6 6 23 -8 17 -19 45 -24 62 -8 28 -6 35 22 62 l31 32 18 -40 c10 -22 39 -92
64 -155 26 -63 53 -130 61 -148 25 -58 21 -64 -77 -112 -49 -24 -107 -58 -127
-76 -37 -32 -37 -32 -20 -61 11 -19 31 -33 62 -42 26 -8 46 -21 46 -28 0 -8 5
-11 10 -8 6 3 10 0 10 -8 0 -8 20 -18 48 -26 52 -13 90 -5 124 26 34 31 52 9
97 -120 24 -67 45 -134 48 -149 3 -15 9 -26 13 -23 5 3 11 1 15 -5 3 -5 1 -10
-5 -10 -6 0 -3 -11 7 -24 10 -13 20 -22 22 -20 7 7 51 -38 51 -52 0 -6 -7 -14
-15 -18 -25 -9 -17 -24 23 -42 155 -69 160 -70 197 -38 29 25 41 54 26 64 -11
8 -86 157 -114 230 -31 79 -70 210 -64 216 4 5 18 -27 71 -168 34 -89 59 -129
72 -116 8 9 -88 248 -100 248 -12 1 -36 49 -61 128 -17 55 -11 82 20 82 8 0
15 3 17 8 2 4 19 15 38 24 19 10 64 36 100 57 83 51 160 93 160 87 0 -3 -20
-19 -45 -37 -24 -17 -42 -36 -39 -40 3 -5 0 -9 -5 -9 -6 0 -11 -4 -11 -10 0
-5 6 -10 13 -10 16 0 57 41 57 57 0 5 9 14 19 19 29 14 162 187 203 265 l23
44 6 -115 c7 -125 35 -240 70 -284 30 -39 71 -56 131 -56 106 1 165 49 239
195 22 44 47 88 54 99 16 21 35 13 35 -15 0 -40 33 -120 58 -139 34 -27 57
-25 81 6 19 24 21 37 17 125 -2 55 0 99 5 99 11 0 30 -36 22 -44 -3 -3 -1 -6
5 -6 7 0 12 5 12 10 0 6 5 10 10 10 6 0 10 -7 10 -15 0 -28 50 -95 91 -122
117 -77 337 -14 491 140 32 31 61 57 64 57 4 0 22 -13 40 -30 69 -60 110 -75
206 -73 87 3 87 3 180 59 51 32 119 82 150 112 71 69 83 72 85 20 2 -49 27
-134 50 -172 12 -19 33 -33 62 -42 41 -12 48 -11 90 11 25 12 59 35 74 51 21
21 30 25 39 16 9 -9 9 -12 0 -12 -7 0 -12 -5 -12 -11 0 -5 4 -8 9 -5 4 3 16
-3 26 -14 20 -22 66 -34 95 -25 22 7 64 74 74 117 5 23 15 30 64 44 31 9 89
27 128 39 40 13 91 26 115 30 49 7 42 16 98 -118 11 -26 27 -55 36 -63 8 -9
13 -19 10 -24 -3 -4 47 -61 111 -126 l115 -119 -1 -81 c0 -45 2 -89 6 -98 12
-33 24 -15 24 38 0 121 27 150 65 69 24 -53 35 -55 35 -7 0 42 21 63 63 64 32
0 84 24 110 51 23 25 22 29 -11 29 -44 0 -90 28 -116 68 -13 21 -43 69 -68
107 -59 92 -71 115 -59 115 5 0 23 -23 40 -50 30 -48 55 -69 68 -57 3 3 -20
41 -51 84 -74 103 -111 172 -94 177 7 2 76 18 153 36 77 17 158 35 180 40 65
16 323 58 420 70 78 9 115 18 197 46 20 7 31 31 18 39 -5 3 -36 1 -67 -4 -172
-31 -233 -41 -278 -47 -27 -3 -53 -8 -56 -10 -3 -1 -57 -12 -120 -24 -63 -11
-134 -25 -159 -30 -39 -9 -88 -16 -248 -35 -19 -3 -30 0 -27 5 4 6 16 10 27
10 11 0 37 4 57 10 64 17 207 50 237 55 168 26 321 62 381 90 54 26 60 55 7
34 -40 -15 -169 -22 -134 -7 14 6 39 17 57 24 17 8 55 16 85 19 29 3 67 8 83
12 29 7 39 9 81 12 11 0 29 8 40 17 10 8 13 13 7 9 -7 -3 -13 -1 -13 4 0 27
-191 2 -337 -44 -72 -23 -142 -37 -408 -80 -253 -41 -340 -53 -350 -48 -15 5
-21 18 -86 181 -27 70 -68 168 -91 217 -82 183 -73 170 -131 188 -80 25 -111
22 -140 -13 -15 -17 -32 -28 -40 -24 -21 8 -45 -21 -53 -64 -9 -50 -26 -116
-62 -242 -59 -206 -85 -305 -90 -347 -4 -38 -2 -44 19 -52 24 -9 24 -9 -6 -17
-16 -4 -46 -17 -65 -29 -19 -12 -45 -24 -56 -27 -25 -6 -26 0 -44 326 -6 98
-12 182 -14 185 -7 11 -21 326 -19 426 1 55 7 180 14 279 12 197 11 201 -46
210 -17 3 -43 0 -60 -6z m643 -1120 c68 -136 71 -148 37 -148 -14 0 -58 -7
-96 -16 -39 -9 -73 -13 -77 -9 -13 12 61 275 77 275 4 0 31 -46 59 -102z
m-1008 58 c0 -42 -11 -57 -73 -97 -67 -43 -87 -48 -87 -21 0 30 107 142 136
142 19 0 24 -5 24 -24z m-2005 -259 c17 -8 38 -25 48 -36 16 -21 16 -23 -4
-64 -35 -68 -115 -160 -187 -214 -69 -52 -233 -157 -236 -151 -1 2 -17 41 -35
88 -19 47 -56 134 -82 194 -27 60 -49 113 -49 118 0 7 131 50 235 77 61 16
273 8 310 -12z m-602 -613 c-6 -16 -63 -47 -63 -34 0 7 -6 8 -19 0 -11 -5 -28
-10 -38 -9 -10 0 2 8 27 18 24 10 45 22 47 27 2 5 14 9 27 9 13 0 22 -5 19
-11z"/>
<path d="M9463 3655 c0 -22 2 -30 4 -17 2 12 2 30 0 40 -3 9 -5 -1 -4 -23z"/>
<path d="M9461 3483 c-1 -66 5 -93 21 -93 11 0 6 65 -10 120 -9 33 -10 32 -11
-27z"/>
<path d="M10800 3161 c0 -6 -16 -11 -35 -11 -61 0 -110 -38 -90 -70 8 -13 73
-30 118 -30 38 0 117 33 117 49 0 13 -51 61 -66 61 -7 0 -19 3 -28 6 -9 3 -16
1 -16 -5z"/>
<path d="M10287 3076 c6 -28 28 -52 36 -38 7 11 -15 54 -29 59 -7 2 -10 -6 -7
-21z"/>
<path d="M10489 1963 c0 -10 -3 -47 -5 -83 -3 -36 -3 -80 1 -98 5 -27 8 -30
19 -19 23 22 28 54 20 137 -5 58 -10 80 -20 80 -8 0 -14 -8 -15 -17z"/>
</g>
<g transform="translate(0.000000,1024.000000) scale(0.100000,-0.100000)"
  fill="#66517c" stroke="none">
<path d="M7720 9613 c-23 -9 -60 -45 -60 -60 0 -11 4 -11 23 -1 64 36 91 81
37 61z"/>
<path d="M7511 9421 c-25 -34 -26 -41 -7 -41 16 0 31 17 40 48 10 31 -9 28
-33 -7z"/>
<path d="M7110 9152 c-47 -7 -141 -24 -210 -38 -108 -22 -172 -39 -325 -85
-58 -17 -255 -102 -255 -109 0 -4 12 -11 27 -15 19 -4 23 -9 14 -14 -10 -6 -9
-10 4 -15 9 -3 24 -6 33 -6 9 0 32 -16 51 -36 33 -33 130 -86 116 -64 -4 6 11
10 34 10 23 0 41 -4 41 -10 0 -5 8 -10 18 -10 14 0 15 2 2 10 -11 7 -6 10 20
10 23 0 45 9 64 25 16 13 38 27 50 31 11 4 24 12 28 18 5 6 8 0 8 -14 0 -18 3
-21 9 -11 5 8 16 11 25 8 10 -4 16 -1 16 9 0 8 5 12 10 9 6 -4 27 -1 48 6 20
7 45 12 55 10 9 -1 17 3 17 9 0 8 11 10 34 6 41 -8 50 2 36 39 -9 23 -14 26
-38 20 -15 -4 -24 -3 -20 1 4 4 3 13 -3 20 -13 16 -3 68 11 59 6 -3 10 -2 10
3 0 12 56 21 83 14 16 -4 18 -11 14 -38 -7 -39 -5 -40 24 -16 16 13 89 149 89
166 0 11 -65 10 -140 -2z"/>
<path d="M8452 9118 c-14 -14 -16 -52 -2 -43 6 3 10 2 10 -3 0 -5 14 -15 30
-22 20 -8 30 -19 30 -34 0 -12 5 -27 11 -33 5 -5 14 -41 20 -79 12 -84 25
-101 69 -86 24 9 45 8 93 -4 34 -9 69 -22 77 -29 15 -12 68 -30 83 -27 4 1 7
-2 7 -8 0 -5 7 -7 15 -4 8 4 15 1 15 -6 0 -10 3 -10 14 -1 10 8 16 9 21 1 3
-6 11 -8 16 -5 5 4 9 2 9 -4 0 -6 6 -8 14 -5 17 7 132 -43 160 -68 11 -10 28
-18 39 -18 10 0 21 -8 24 -18 3 -14 12 -17 39 -14 23 3 34 0 34 -8 0 -19 80
-5 123 20 20 12 57 27 83 33 26 7 50 18 52 26 3 8 0 11 -7 7 -6 -4 -11 -3 -11
2 0 5 -11 7 -25 4 -31 -5 -33 12 -3 32 l22 15 -28 22 c-52 41 -282 143 -461
206 -180 62 -404 125 -451 127 -47 1 -50 0 -46 -21 7 -39 -17 -25 -29 17 -12
41 -26 49 -47 28z"/>
<path d="M7724 8701 c-102 -46 -156 -147 -157 -291 -1 -97 14 -152 75 -274 68
-137 84 -156 121 -155 28 0 40 10 92 77 172 218 201 281 192 418 -5 88 -28
144 -79 191 -57 54 -167 69 -244 34z"/>
<path d="M5501 8433 c-1 -7 -15 -9 -41 -6 -68 9 -144 -37 -197 -120 -13 -21
-28 -35 -33 -32 -4 3 -11 -1 -13 -7 -4 -10 -6 -10 -6 0 -1 9 -7 9 -25 -3 -26
-17 -40 -52 -24 -57 5 -2 -3 -10 -18 -18 -36 -19 -68 -49 -83 -77 -6 -13 -19
-23 -28 -23 -9 0 -13 -3 -10 -6 8 -8 -11 -44 -23 -44 -12 0 -68 -56 -110 -111
-19 -25 -47 -61 -62 -80 -16 -19 -60 -74 -98 -124 -39 -49 -77 -98 -86 -108
-21 -25 -15 -29 27 -17 18 6 48 10 66 10 33 0 83 18 94 33 3 5 12 9 20 11 26
4 60 27 54 37 -4 5 1 9 9 9 9 0 16 4 16 10 0 15 42 50 62 50 10 0 18 5 18 10
0 6 4 10 10 10 5 0 7 -6 4 -14 -3 -7 2 -16 10 -19 9 -4 17 1 21 14 4 10 11 17
16 14 5 -3 6 0 3 8 -3 8 5 18 18 25 13 6 17 11 10 11 -21 1 -3 21 19 21 10 0
19 5 19 10 0 6 9 10 20 10 11 0 20 5 20 10 0 10 36 50 45 50 2 0 15 11 29 25
27 27 42 30 65 16 13 -8 13 -12 0 -27 -12 -16 -12 -17 2 -12 9 4 22 1 28 -5
14 -14 21 -6 27 33 4 19 2 30 -4 26 -5 -3 -15 1 -22 9 -9 11 -7 19 10 37 12
13 29 33 38 46 9 14 22 22 33 19 14 -4 21 9 37 74 11 43 17 80 15 83 -3 3 -7
30 -10 61 -3 48 -1 59 18 73 14 12 20 25 16 42 -2 14 -5 20 -6 13z"/>
<path d="M4937 8313 c-4 -3 -7 -19 -7 -35 0 -35 33 -39 51 -6 10 18 8 24 -7
35 -20 15 -28 16 -37 6z"/>
<path d="M10208 8199 c-10 -5 -18 -16 -18 -24 0 -7 -6 -16 -12 -19 -7 -4 -3
-4 10 -2 20 4 21 2 11 -10 -7 -9 -21 -13 -31 -11 -22 6 -24 -6 -3 -23 8 -7 13
-15 10 -19 -2 -4 5 -15 15 -24 19 -16 18 -53 -1 -41 -12 7 -11 0 3 -31 8 -18
14 -22 19 -13 16 26 22 -4 6 -31 -9 -16 -17 -42 -16 -58 0 -24 1 -26 9 -8 8
19 9 18 11 -5 1 -14 2 -31 2 -37 -1 -7 3 -13 8 -13 5 0 9 4 9 8 0 20 33 6 53
-22 11 -17 24 -33 27 -36 4 -3 10 -13 13 -24 5 -13 3 -17 -7 -13 -12 5 -13 1
-4 -24 9 -26 19 -34 41 -30 4 0 7 -14 8 -31 0 -18 3 -27 6 -20 6 16 33 -3 33
-24 0 -8 3 -14 8 -14 4 0 16 -12 26 -27 11 -14 14 -23 8 -19 -6 3 -13 2 -17
-4 -3 -5 2 -10 12 -10 32 0 46 -48 51 -177 3 -97 7 -123 18 -123 10 0 14 17
16 68 0 37 0 77 -1 89 -1 17 2 21 14 17 8 -3 15 -10 15 -15 0 -5 7 -9 15 -9
14 0 14 3 0 31 -9 17 -15 40 -13 52 3 18 8 15 36 -24 18 -24 52 -73 75 -109
23 -36 48 -69 54 -73 7 -4 13 -17 13 -28 0 -11 7 -31 16 -44 11 -17 12 -25 5
-25 -7 0 -9 -4 -6 -10 3 -5 13 -10 21 -10 8 0 12 5 9 10 -4 7 2 7 17 1 50 -20
63 -24 76 -22 6 1 12 -3 12 -9 0 -5 9 -10 20 -10 12 0 30 -16 46 -42 15 -24
33 -47 40 -51 8 -4 14 -15 14 -23 0 -8 12 -26 26 -41 14 -14 23 -31 20 -39 -3
-8 1 -14 10 -14 10 0 13 -8 10 -27 -3 -15 0 -33 6 -40 7 -9 7 -13 -1 -13 -19
0 -12 -17 9 -23 12 -3 20 -14 20 -26 0 -12 4 -21 9 -21 21 0 -4 -43 -30 -52
-16 -5 -29 -14 -29 -19 0 -5 -6 -9 -14 -9 -22 0 -26 -25 -6 -38 11 -7 16 -19
13 -30 -2 -11 0 -23 6 -26 6 -4 11 -2 11 3 0 20 26 11 51 -16 50 -57 55 -88
21 -123 -13 -12 -14 -11 -8 8 6 18 3 22 -13 22 -12 0 -20 -6 -19 -12 2 -7 -4
-13 -12 -13 -21 0 -32 -22 -21 -42 12 -25 49 -218 62 -333 29 -260 35 -348 33
-501 -1 -128 -5 -174 -17 -198 -14 -27 -14 -31 -1 -31 9 0 12 -4 9 -10 -3 -5
1 -10 11 -10 13 0 14 -3 5 -14 -6 -8 -11 -18 -10 -22 1 -5 -3 -22 -9 -37 -7
-16 -12 -41 -12 -57 0 -16 -4 -32 -10 -35 -5 -3 -10 -14 -10 -25 0 -21 -30
-36 -40 -20 -4 6 -15 8 -25 4 -13 -5 -16 -4 -11 4 4 7 3 12 -3 12 -6 0 -8 -16
-5 -42 10 -82 9 -103 -5 -103 -7 0 -24 -20 -37 -45 -13 -25 -24 -40 -24 -35 0
6 -7 -3 -16 -20 -16 -30 -11 -81 7 -70 6 4 8 -4 4 -22 -5 -21 -4 -24 4 -13 9
13 11 13 11 0 0 -9 -5 -21 -12 -28 -7 -7 -8 -12 -2 -12 6 0 15 5 22 12 7 7 12
8 12 3 0 -17 -26 -85 -31 -81 -2 2 -4 -8 -4 -24 -1 -16 3 -26 7 -24 4 3 8 -4
8 -15 0 -25 -41 -29 -60 -6 -14 17 -35 21 -25 5 4 -6 -10 -1 -30 10 -31 17
-40 19 -54 8 -28 -23 -36 -40 -42 -98 -5 -37 2 -80 12 -80 5 0 8 3 6 8 -3 4 7
8 21 8 15 1 33 3 41 5 21 6 22 -30 1 -75 -10 -23 -42 -95 -70 -161 -29 -66
-64 -137 -79 -159 -41 -61 -51 -80 -51 -97 0 -9 -9 -24 -20 -34 -11 -10 -20
-23 -20 -29 0 -14 -132 -179 -210 -263 -34 -36 -59 -68 -56 -71 3 -3 2 -10 -3
-16 -4 -6 -11 -27 -13 -46 -6 -39 19 -95 43 -96 8 0 22 -4 33 -9 12 -5 21 -3
27 6 6 10 9 8 9 -10 0 -18 4 -22 20 -18 10 3 20 1 22 -4 10 -31 268 275 345
410 15 25 48 78 73 116 26 39 55 85 65 104 15 30 19 32 27 17 5 -9 10 -106 12
-216 1 -110 5 -203 9 -206 22 -22 27 29 28 262 0 222 3 255 20 304 11 30 27
76 36 103 9 26 20 47 25 47 4 0 8 9 8 20 0 11 7 20 15 20 8 0 15 5 15 12 0 6
3 8 6 5 8 -7 44 36 44 52 0 6 5 11 10 11 6 0 10 7 10 16 0 8 -4 13 -9 9 -5 -3
-12 -1 -16 5 -3 5 2 10 12 10 14 0 15 2 4 9 -11 7 -9 15 13 43 27 36 34 54 16
43 -18 -11 -10 11 10 30 11 10 20 24 20 32 0 7 5 13 11 13 5 0 7 -4 4 -10 -3
-5 -2 -10 4 -10 5 0 13 5 16 11 4 6 13 8 21 5 12 -4 14 4 11 40 -3 40 -2 44
10 28 16 -22 17 -14 1 23 -6 15 -10 33 -10 39 1 6 -5 11 -13 11 -8 0 -15 -4
-15 -9 0 -16 -17 1 -23 22 -3 11 -1 18 3 15 5 -3 11 -1 14 4 4 5 -2 11 -11 14
-14 3 -11 6 10 11 25 7 34 26 28 59 -1 5 3 6 8 3 5 -4 12 -2 15 3 4 5 1 13 -4
16 -10 6 -7 86 6 140 4 16 3 17 -5 5 -9 -13 -11 -12 -11 3 0 10 5 27 10 37 7
13 7 21 0 25 -5 3 -10 16 -9 28 l1 22 6 -21 c6 -18 9 -20 19 -9 8 9 9 16 3 20
-6 3 -10 12 -10 18 0 7 4 6 10 -3 8 -12 10 -11 10 6 0 11 -6 26 -12 33 -11 10
-9 11 7 5 20 -8 20 -8 2 20 -10 15 -16 30 -13 34 3 3 6 0 6 -7 0 -9 4 -8 15 3
10 10 12 21 6 37 -4 13 -4 39 0 58 5 23 4 38 -3 42 -6 4 -8 11 -4 17 6 11 8
307 2 357 -2 17 -7 68 -11 115 -12 162 -61 466 -91 565 -21 72 -83 267 -91
285 -3 8 -7 20 -8 25 -5 18 -53 159 -66 193 -8 17 -17 32 -21 32 -4 0 -8 7 -8
15 0 8 -4 15 -10 15 -5 0 -10 9 -10 19 0 26 -59 149 -117 244 -86 141 -235
362 -249 370 -8 4 -20 20 -28 35 -8 15 -23 36 -33 47 -10 11 -38 47 -62 80
-25 33 -49 62 -53 63 -5 2 -2 15 8 29 16 25 16 26 -9 19 -15 -3 -29 -1 -33 6
-4 7 -3 8 4 4 7 -4 12 -2 12 3 0 6 -11 11 -25 11 -14 0 -30 9 -37 20 -7 11
-20 20 -30 20 -9 0 -19 4 -23 9 -3 6 9 7 30 4 27 -4 35 -2 35 10 0 8 -5 17
-11 19 -5 2 -11 11 -13 20 -3 23 -10 30 -52 44 -32 11 -34 10 -29 -6 5 -15 2
-17 -15 -13 -11 3 -21 9 -21 14 -1 5 -2 15 -3 22 0 6 -11 13 -23 15 -13 2 -23
9 -23 17 0 7 -10 15 -22 19 -29 7 -30 7 -50 -5z m771 -1038 c9 -16 8 -18 -8
-14 -12 3 -17 11 -14 19 7 18 10 18 22 -5z m70 -55 c11 -14 6 -15 -27 -7 -4 1
8 21 12 21 2 0 9 -6 15 -14z m130 -1751 c3 -12 -13 -9 -17 4 -2 7 0 11 6 7 5
-3 10 -8 11 -11z m-6 -251 c9 -4 17 -10 17 -15 0 -16 -25 -9 -44 12 -10 12
-12 19 -4 15 7 -3 21 -9 31 -12z"/>
<path d="M6240 8185 c-82 -37 -130 -125 -130 -238 0 -127 76 -218 266 -321 60
-33 128 -72 151 -88 23 -15 55 -28 71 -28 28 0 29 2 36 61 11 109 7 311 -8
367 -29 107 -92 193 -171 234 -53 28 -167 35 -215 13z"/>
<path d="M9190 7981 c-95 -31 -174 -104 -221 -205 -42 -91 -60 -189 -57 -314
l3 -107 33 -3 c59 -6 364 137 444 207 70 62 91 113 87 215 -3 70 -8 89 -32
124 -15 24 -45 51 -69 63 -46 23 -146 34 -188 20z"/>
<path d="M7527 7539 c-49 -47 -54 -86 -18 -136 26 -36 29 -49 33 -144 6 -128
40 -248 69 -246 21 1 24 26 10 73 -19 61 -53 233 -49 251 2 11 12 18 28 19 33
1 86 33 101 61 9 18 10 32 1 62 -19 61 -41 82 -94 88 -42 5 -49 2 -81 -28z"/>
<path d="M7779 7443 c-39 -24 -54 -74 -34 -113 14 -27 14 -32 0 -54 -25 -38
-55 -156 -55 -218 0 -101 25 -123 35 -30 5 45 50 214 61 231 2 2 16 -1 32 -7
22 -8 37 -6 61 5 82 40 95 130 27 185 -27 22 -93 23 -127 1z"/>
<path d="M7335 7330 c-39 -15 -61 -67 -49 -115 7 -29 69 -76 90 -68 15 6 34
-11 52 -47 27 -56 72 -120 83 -120 36 0 3 88 -57 150 l-34 35 25 29 c14 16 25
41 25 55 0 26 -23 68 -44 83 -14 10 -66 9 -91 -2z"/>
<path d="M5269 7102 c-69 -36 -99 -89 -99 -176 0 -34 5 -78 10 -98 14 -48 65
-115 115 -150 68 -47 123 -57 474 -84 l84 -7 -5 48 c-8 64 -111 271 -175 349
-54 66 -126 120 -181 136 -20 5 -67 10 -103 10 -53 0 -77 -6 -120 -28z"/>
<path d="M4307 7013 c-4 -3 -7 -17 -7 -30 0 -13 -7 -26 -15 -29 -8 -4 -15 -12
-15 -20 0 -8 -4 -14 -9 -14 -6 0 -9 -9 -8 -20 1 -13 8 -20 21 -20 18 0 18 -1
3 -18 -10 -10 -17 -23 -17 -29 0 -6 -7 -16 -15 -23 -7 -6 -17 -33 -20 -58 -3
-26 -12 -65 -19 -87 -8 -22 -19 -66 -25 -97 -9 -43 -16 -56 -27 -51 -12 4 -13
1 -4 -23 6 -15 8 -41 4 -58 -6 -30 -34 -96 -44 -106 -3 -3 -6 -16 -6 -30 -2
-28 -6 -57 -23 -149 -29 -151 -29 -652 -1 -851 26 -184 51 -322 69 -376 24
-76 35 -126 32 -141 -1 -7 2 -13 6 -13 5 0 9 -9 10 -19 1 -11 13 -48 27 -82
19 -46 22 -66 14 -76 -8 -10 -5 -13 13 -13 19 0 21 -2 9 -10 -12 -7 -11 -15 8
-49 13 -23 21 -41 17 -41 -3 0 -1 -9 5 -20 7 -14 7 -20 0 -20 -5 0 -10 -5 -10
-10 0 -7 7 -7 22 1 18 10 20 9 15 -6 -4 -9 -7 -19 -7 -21 0 -3 -4 -2 -10 1 -5
3 -10 -1 -10 -9 0 -9 3 -15 8 -15 19 3 23 -2 13 -15 -14 -17 3 -61 20 -51 5 4
9 -8 9 -25 0 -17 4 -29 9 -26 5 3 14 -1 21 -9 7 -8 16 -12 21 -9 5 3 13 -6 19
-20 7 -19 14 -24 27 -19 17 6 17 5 -1 -15 -15 -17 -16 -25 -7 -36 7 -8 9 -25
5 -41 -5 -20 -3 -26 7 -24 8 2 24 -2 37 -9 13 -8 22 -9 22 -3 0 6 7 8 16 4 13
-5 15 -2 10 15 -4 11 -2 23 4 27 5 3 10 -1 10 -9 0 -11 9 -16 29 -16 17 0 33
-5 36 -10 4 -6 11 -8 16 -5 5 4 9 -1 9 -9 0 -9 4 -16 9 -16 6 0 6 -12 0 -32
-11 -41 -11 -41 1 -33 6 3 10 3 10 -1 0 -11 -34 -33 -52 -34 -12 0 -18 -13
-23 -50 -4 -27 -11 -50 -16 -50 -5 0 -9 -9 -9 -21 0 -15 4 -19 16 -15 9 3 18
6 20 6 2 0 4 9 4 19 0 11 5 23 11 27 7 4 9 0 5 -12 -3 -11 5 -36 19 -59 14
-22 25 -34 25 -26 0 11 4 11 23 -1 37 -25 64 -27 84 -8 17 16 20 16 45 2 21
-12 26 -21 22 -37 -6 -17 -5 -18 8 -7 9 7 23 10 32 6 12 -5 15 -2 10 10 -3 9
-1 23 6 31 9 11 9 15 1 15 -7 0 -9 5 -6 10 3 5 1 10 -6 10 -7 0 -9 3 -6 7 4 3
-1 12 -11 19 -9 7 -12 14 -6 14 13 0 -6 69 -38 133 -23 48 -23 47 5 47 30 0
40 10 26 26 -6 8 -9 20 -6 28 3 8 0 17 -8 20 -8 3 -16 -3 -18 -12 -3 -12 -5
-11 -6 6 0 12 -4 22 -7 22 -10 0 -34 -28 -34 -39 0 -6 -5 -11 -10 -11 -6 0 -9
12 -8 28 2 18 -1 26 -11 24 -7 -1 -23 8 -36 22 -14 15 -26 21 -32 15 -6 -6
-10 -4 -10 6 0 8 4 15 9 15 5 0 7 10 4 23 -3 12 -4 18 -1 12 9 -18 112 -5 131
16 17 19 16 22 -5 77 -13 31 -32 64 -42 73 -10 9 -19 23 -21 30 -6 29 -48 54
-48 29 0 -5 -5 -10 -11 -10 -6 0 -9 6 -6 13 19 45 19 47 3 47 -9 0 -16 5 -16
11 0 5 -4 7 -10 4 -5 -3 -10 0 -10 8 0 8 -7 17 -15 21 -8 3 -15 13 -15 21 0
12 -6 15 -22 10 -16 -6 -20 -4 -15 8 3 9 -16 64 -43 124 -27 59 -63 160 -81
223 -17 63 -40 147 -51 185 -35 124 -59 277 -59 368 0 31 -4 57 -9 57 -12 0
-11 130 2 153 6 12 6 23 -2 32 -8 10 -10 62 -5 177 7 205 8 218 26 229 10 6
10 9 2 9 -7 0 -13 5 -13 10 0 6 7 10 15 10 8 0 15 7 15 15 0 9 6 12 15 9 8 -4
15 -1 15 5 0 6 -3 11 -7 11 -14 0 -5 84 10 95 12 9 12 12 1 23 -16 15 -18 48
-4 57 6 3 10 15 10 26 0 10 5 19 10 19 6 0 10 7 10 15 0 21 13 19 30 -5 8 -11
22 -20 32 -20 20 0 36 22 20 28 -7 2 -12 10 -12 18 0 14 -11 18 -43 14 -15 -1
-17 3 -12 19 4 12 2 21 -4 21 -6 0 -9 10 -7 23 3 12 5 24 5 26 1 3 7 -2 14
-10 6 -8 11 -12 10 -10 -6 10 48 41 59 35 10 -6 10 -4 3 7 -6 8 -10 35 -9 62
1 26 -2 50 -7 53 -5 3 -9 17 -9 32 0 15 -9 35 -20 45 -12 10 -18 23 -14 29 5
8 2 9 -9 5 -13 -5 -17 -1 -17 19 0 17 -7 28 -20 31 -11 3 -20 13 -20 22 0 9
-11 37 -25 62 -13 26 -22 49 -18 52 3 3 -2 13 -10 22 -17 17 -21 18 -30 8z
m27 -169 c9 -24 7 -27 -9 -10 -17 17 -19 26 -6 26 5 0 12 -7 15 -16z"/>
<path d="M7376 6885 c-93 -38 -139 -93 -138 -167 1 -35 -2 -38 -26 -38 -76 -1
-155 -73 -178 -161 -13 -48 -9 -89 7 -89 5 0 34 13 66 29 115 57 212 63 326
21 82 -31 113 -73 127 -170 11 -77 -10 -181 -54 -273 -34 -72 -162 -242 -230
-306 -55 -53 -50 -61 39 -76 91 -15 194 -86 231 -157 8 -16 18 -60 21 -97 7
-89 -13 -150 -72 -218 l-45 -51 34 -43 c48 -63 66 -104 73 -159 6 -50 -10
-131 -31 -160 -9 -13 -9 -13 6 -2 9 8 22 11 29 7 16 -10 -78 -97 -135 -126
-25 -12 -46 -26 -46 -29 0 -4 9 -15 21 -26 60 -55 86 -181 51 -250 -26 -51
-56 -78 -115 -104 -26 -12 -47 -24 -47 -27 0 -3 11 -20 24 -37 31 -41 40 -100
23 -151 -12 -37 -48 -66 -111 -88 -19 -7 -2 -17 80 -48 89 -33 104 -35 104
-15 0 7 7 19 15 26 8 7 15 20 15 30 0 22 59 75 104 94 34 14 65 45 33 33 -10
-3 -17 -2 -17 3 0 6 9 10 20 10 11 0 20 4 20 8 0 10 62 33 69 26 3 -3 -2 -12
-12 -19 -22 -16 -10 -25 18 -15 23 8 57 1 50 -10 -3 -4 6 -7 20 -6 14 0 25 4
25 8 0 4 16 6 35 5 28 -2 39 -9 50 -31 8 -16 15 -35 15 -42 0 -8 9 -23 20 -34
11 -11 20 -27 20 -35 0 -8 4 -15 8 -15 5 0 14 -17 20 -39 7 -21 30 -58 52 -81
38 -40 42 -42 83 -37 23 4 67 13 97 22 30 9 63 18 74 20 10 2 23 8 30 13 6 5
19 12 29 15 31 11 8 -12 -32 -32 -20 -11 -44 -27 -52 -37 -13 -16 -10 -17 53
-11 37 3 75 11 85 16 10 6 38 19 63 29 86 36 263 184 352 294 89 110 172 294
204 453 8 39 19 88 24 110 5 23 5 46 0 55 -5 8 -10 11 -10 6 0 -5 -6 -3 -14 3
-12 10 -14 9 -10 -6 6 -22 -49 -236 -80 -312 -34 -84 -108 -203 -178 -287 -74
-90 -228 -218 -288 -239 -46 -16 -70 -12 -26 5 81 30 289 227 368 347 26 39
61 100 78 135 34 69 80 216 80 255 0 13 7 38 16 55 12 23 13 32 4 38 -9 5 -9
9 -1 14 20 13 2 25 -47 31 -182 22 -278 47 -384 100 -250 125 -422 294 -507
499 -59 143 -65 287 -22 563 57 361 62 489 24 638 -55 220 -250 365 -488 365
-61 0 -94 -6 -139 -25z m182 -141 c30 -21 25 -54 -10 -74 -30 -16 -52 -9 -72
23 -8 12 -5 22 14 42 28 29 37 31 68 9z"/>
<path d="M9827 6679 c-120 -28 -212 -118 -293 -285 -36 -76 -59 -136 -62 -167
l-5 -49 144 7 c202 9 327 24 375 45 52 22 111 81 135 134 22 50 25 162 5 210
-38 90 -168 136 -299 105z"/>
<path d="M10979 6468 c0 -1 -2 -20 -3 -41 -1 -29 2 -36 13 -32 11 5 12 3 1
-10 -11 -13 -11 -18 0 -28 10 -10 11 -9 5 2 -6 10 -4 12 4 7 7 -5 10 -14 7
-22 -3 -8 -1 -14 4 -14 6 0 10 -9 10 -21 0 -34 31 -129 42 -129 17 0 -17 201
-43 256 -12 23 -37 44 -40 32z"/>
<path d="M6428 5785 c-122 -33 -178 -101 -186 -220 -7 -105 42 -175 147 -211
22 -7 86 -23 143 -35 57 -11 126 -27 153 -35 28 -8 97 -25 155 -38 58 -13 165
-38 239 -55 73 -17 161 -31 196 -31 54 0 69 4 111 33 127 86 122 251 -11 342
-79 55 -575 217 -763 250 -99 18 -121 18 -184 0z"/>
<path d="M10983 5743 c4 -6 0 -13 -8 -17 -21 -8 -19 -39 5 -67 l19 -24 1 52
c0 29 -5 55 -12 59 -6 4 -8 3 -5 -3z"/>
<path d="M11035 5529 c-6 -17 -9 -19 -16 -8 -7 11 -9 9 -9 -7 0 -12 7 -24 15
-28 8 -3 15 -10 15 -15 0 -6 -8 -7 -17 -4 -14 6 -14 3 2 -19 17 -22 30 -26 67
-19 4 0 15 12 24 26 18 27 16 31 -43 72 l-32 23 -6 -21z"/>
<path d="M6303 5263 c-55 -19 -89 -60 -102 -123 -15 -70 -14 -88 10 -140 25
-55 53 -86 99 -110 50 -25 185 -66 260 -79 36 -7 99 -20 140 -31 203 -52 472
-90 561 -80 135 15 203 124 148 236 -45 94 -155 144 -491 224 -70 16 -164 42
-208 56 -105 33 -267 64 -328 63 -26 0 -66 -7 -89 -16z"/>
<path d="M4497 4922 c-13 -3 -16 -10 -11 -30 4 -15 10 -30 14 -35 12 -13 68
-16 79 -4 9 12 4 66 -8 68 -27 3 -59 4 -74 1z"/>
<path d="M10758 4871 c-10 -10 -18 -24 -18 -32 0 -12 -2 -11 -11 1 -9 12 -10
12 -5 -3 3 -10 6 -23 6 -28 0 -5 7 -9 15 -9 9 0 18 -6 21 -13 7 -20 64 -20 64
-1 0 8 4 13 9 10 18 -12 21 28 3 58 -21 36 -58 44 -84 17z"/>
<path d="M4930 4792 c-42 -19 -60 -38 -60 -64 0 -39 9 -57 39 -72 80 -42 150
56 86 119 -25 25 -38 29 -65 17z"/>
<path d="M6360 4765 c-51 -23 -67 -42 -86 -97 -13 -42 -14 -57 -4 -93 26 -91
120 -159 263 -189 173 -36 338 -66 411 -76 43 -5 81 -12 86 -15 4 -2 53 -5
109 -6 94 -1 105 1 141 25 121 80 86 253 -60 301 -25 8 -90 21 -145 29 -114
16 -286 53 -454 96 -149 39 -215 45 -261 25z"/>
<path d="M10368 4653 c-10 -19 -1 -47 18 -60 19 -12 24 -12 38 3 27 27 17 58
-21 62 -17 2 -33 -1 -35 -5z"/>
<path d="M5165 4446 c-76 -26 -105 -52 -144 -132 -23 -45 -23 -47 -8 -118 9
-39 20 -102 24 -141 11 -97 8 -389 -6 -510 -29 -253 -45 -349 -60 -363 -9 -7
-88 -54 -175 -104 -186 -105 -232 -140 -282 -215 -30 -46 -35 -61 -30 -91 8
-53 32 -71 101 -78 l60 -6 90 71 c50 39 107 85 128 102 26 22 37 26 37 16 0
-41 -37 -153 -82 -250 -46 -100 -48 -110 -34 -126 18 -20 91 -45 105 -37 17
11 23 -50 22 -222 -1 -181 5 -212 40 -212 28 0 40 40 30 97 -16 88 -25 323
-12 323 7 0 10 4 7 9 -4 5 7 20 23 33 17 15 31 39 35 61 4 20 11 37 16 37 32
0 100 187 125 344 8 48 15 89 17 91 8 7 192 80 266 105 l82 28 15 -35 c8 -19
15 -38 15 -40 0 -3 16 -47 36 -97 30 -74 72 -150 115 -210 12 -16 59 25 60 53
l0 26 12 -25 c6 -14 16 -28 21 -31 4 -4 5 -12 1 -19 -6 -9 -3 -9 14 -1 12 7
27 9 33 5 13 -8 3 86 -10 95 -4 4 -12 20 -19 38 -16 46 6 39 29 -9 9 -21 21
-38 25 -38 14 0 14 52 0 74 -7 12 -30 66 -51 121 -21 55 -47 122 -57 148 -10
26 -16 53 -13 60 4 11 33 24 84 38 11 3 20 -20 37 -95 30 -134 60 -212 92
-237 21 -17 35 -20 76 -16 46 6 54 11 100 64 28 32 84 94 127 138 l76 79 -1
-77 c-2 -67 1 -79 21 -99 32 -32 91 -30 170 6 34 16 62 32 62 37 0 4 8 10 18
13 29 9 128 98 174 154 l43 54 7 -62 c8 -69 39 -127 85 -157 38 -25 179 -28
237 -6 60 24 144 79 196 129 24 24 45 42 47 41 1 -2 -4 -25 -11 -52 -7 -28
-11 -57 -8 -65 8 -26 37 -47 73 -54 52 -9 68 8 82 87 11 65 12 68 47 77 229
61 207 63 259 -25 25 -41 54 -81 65 -88 39 -24 167 -53 180 -40 2 3 -9 29 -25
58 -37 67 -37 82 0 56 47 -33 78 -43 85 -25 7 19 5 23 -57 99 -27 33 -55 68
-64 78 -8 11 -12 21 -9 24 6 6 137 39 351 88 380 86 495 119 495 141 0 17 3
16 -40 4 -19 -6 -62 -17 -95 -25 -33 -7 -96 -23 -140 -34 -44 -11 -89 -20
-100 -20 -23 1 132 53 223 75 84 20 172 53 172 65 0 5 -16 9 -35 9 -67 0 -438
-63 -803 -136 -68 -14 -127 -22 -131 -20 -5 3 -25 45 -46 93 -85 199 -143 284
-201 299 -56 14 -85 -29 -166 -250 -55 -151 -67 -172 -140 -243 -135 -132
-238 -186 -315 -167 -30 7 -39 15 -47 41 -12 43 2 59 62 66 128 16 236 80 280
167 46 91 20 170 -72 215 -50 24 -57 25 -119 15 -108 -17 -209 -86 -255 -173
l-20 -38 -31 53 c-16 29 -36 60 -43 69 -30 36 -191 159 -264 202 -44 25 -106
68 -139 96 -60 51 -68 54 -139 51 -56 -3 -107 -46 -121 -103 -6 -21 -3 -26 17
-29 20 -3 26 -14 44 -93 12 -49 34 -157 49 -240 16 -82 32 -160 38 -172 10
-23 4 -33 -43 -65 -14 -10 -51 -35 -84 -58 -32 -22 -59 -40 -60 -40 -10 0 -40
127 -71 295 -46 253 -60 360 -105 814 -5 57 -14 98 -22 102 -19 13 -98 9 -137
-5 -53 -19 -75 -55 -75 -123 0 -83 10 -188 18 -201 4 -7 5 -12 2 -12 -3 0 -13
15 -21 33 l-15 32 4 -60 c3 -47 97 -503 131 -637 8 -30 12 -29 -97 -32 -17 -1
-27 12 -51 69 -37 90 -94 246 -169 465 -89 259 -148 406 -181 445 -35 43 -62
45 -162 11z m224 -868 c40 -101 75 -188 78 -195 3 -7 -10 -15 -34 -19 -21 -4
-68 -18 -105 -31 -37 -12 -71 -23 -76 -23 -5 0 4 84 19 188 16 103 28 204 29
225 0 20 4 37 8 37 5 0 41 -82 81 -182z m1202 30 c107 -108 117 -236 22 -294
-15 -9 -40 -25 -54 -35 l-27 -18 -5 37 c-3 20 -18 100 -35 177 -16 77 -33 164
-37 194 l-7 54 48 -34 c27 -19 69 -55 95 -81z m629 28 c0 -27 -8 -41 -40 -70
-34 -30 -47 -36 -85 -36 -30 0 -45 4 -45 13 0 21 60 86 98 107 56 29 72 26 72
-14z m491 -13 c11 -27 30 -68 41 -93 11 -25 17 -42 13 -38 -3 3 -41 -5 -83
-18 -42 -13 -78 -24 -80 -24 -1 0 2 9 8 19 5 11 22 57 36 103 27 85 32 98 40
98 2 0 13 -21 25 -47z m-1897 -625 c17 -33 16 -47 -1 -26 -12 15 -27 58 -19
58 2 0 12 -14 20 -32z"/>
<path d="M10602 4378 c-20 -20 -14 -38 13 -38 27 0 33 21 12 39 -10 8 -17 7
-25 -1z"/>
<path d="M6494 4310 c-48 -19 -68 -91 -44 -156 17 -44 102 -118 163 -143 40
-16 57 -29 59 -44 2 -14 26 -33 76 -60 61 -33 84 -40 150 -44 82 -5 155 12
160 38 2 11 -10 14 -54 12 -31 0 -70 5 -88 13 -30 14 -28 15 41 11 98 -6 166
7 218 40 51 33 65 58 65 119 0 53 -27 84 -93 108 -45 17 -202 46 -248 46 -15
0 -92 16 -171 35 -145 35 -196 41 -234 25z"/>
<path d="M10409 4103 c-8 -22 -7 -30 7 -40 38 -28 71 -3 54 41 -13 35 -47 35
-61 -1z"/>
<path d="M8792 3947 c-13 -15 -4 -31 19 -35 24 -4 32 26 10 38 -13 7 -22 6
-29 -3z"/>
<path d="M4408 3833 c-21 -5 -21 -5 -6 -38 13 -29 39 -32 63 -9 15 15 15 18
-1 35 -17 19 -24 21 -56 12z"/>
<path d="M4830 3700 c0 -5 5 -10 10 -10 6 0 10 -6 10 -14 0 -7 6 -19 14 -25
11 -9 15 -7 18 7 3 10 0 25 -6 33 -13 17 -46 24 -46 9z"/>
<path d="M4423 3540 c-41 -13 -83 -64 -83 -101 0 -52 30 -108 75 -139 69 -47
364 -111 409 -88 28 15 15 77 -38 181 -26 49 -46 95 -46 102 0 7 -8 19 -17 26
-15 12 -16 12 -10 -5 6 -16 5 -17 -7 -7 -9 8 -16 8 -20 2 -4 -6 -25 -2 -54 11
-53 24 -160 33 -209 18z"/>
<path d="M4374 3066 c-11 -44 19 -62 50 -30 12 12 13 20 6 35 -15 27 -48 24
-56 -5z"/>
<path d="M5455 2880 c4 -7 1 -10 -6 -9 -24 5 -63 -13 -93 -42 -17 -16 -24 -29
-17 -29 7 0 11 -6 8 -14 -3 -8 -2 -16 4 -18 5 -2 -4 -40 -20 -86 -18 -49 -25
-82 -18 -82 6 0 0 -10 -12 -21 -16 -16 -20 -24 -11 -29 8 -5 9 -16 5 -30 -6
-19 -4 -22 10 -16 11 4 24 -1 35 -14 9 -11 19 -17 22 -15 3 3 11 -1 18 -10 7
-8 19 -15 26 -15 8 0 14 -4 14 -8 0 -5 12 -14 26 -20 14 -7 22 -17 19 -22 -3
-6 0 -10 7 -11 7 0 4 -5 -7 -10 -15 -7 -11 -8 18 -5 27 4 37 1 37 -9 0 -8 10
-20 22 -26 13 -7 28 -18 35 -25 15 -15 17 -38 3 -29 -19 12 -10 -5 21 -36 34
-34 50 -28 41 17 -5 28 11 32 30 6 18 -26 78 -37 78 -16 0 11 5 14 16 10 14
-6 15 -4 4 9 -10 13 -15 13 -21 3 -4 -7 -11 -9 -15 -5 -4 4 2 14 14 23 l22 15
-22 40 c-12 21 -26 39 -32 39 -6 0 -5 4 2 9 11 7 10 17 -3 59 -9 28 -23 53
-31 56 -8 3 -14 16 -13 28 0 13 3 17 6 11 2 -7 9 -13 14 -13 6 0 6 8 -1 19 -7
14 -6 21 3 24 6 3 3 6 -9 6 -23 1 -120 92 -129 122 -4 10 -11 19 -16 19 -5 0
-9 9 -9 20 0 11 -4 20 -10 20 -5 0 -10 8 -10 17 0 31 -23 80 -43 92 -13 9 -17
9 -12 1z"/>
<path d="M9090 2320 c-334 -27 -503 -50 -820 -111 -240 -46 -780 -189 -1057
-280 -69 -23 -98 -37 -111 -57 -42 -60 -35 -124 18 -159 42 -29 94 -29 214 -3
50 11 94 20 99 20 6 0 8 -96 5 -245 -4 -206 -3 -245 9 -250 8 -3 18 -3 22 0 5
2 7 85 5 185 -2 99 1 180 5 180 4 0 11 -19 17 -42 11 -51 41 -62 36 -13 -2 17
-4 66 -5 109 -2 67 1 80 16 90 10 6 28 19 40 29 11 10 27 15 34 13 18 -7 94
21 108 41 7 9 17 13 23 9 14 -8 115 31 125 50 9 15 300 111 453 148 118 29
346 69 544 96 132 18 380 39 540 44 183 7 164 -5 -47 -29 -451 -51 -1066 -191
-1187 -270 -51 -34 -45 -74 18 -105 55 -26 143 -26 216 1 30 11 82 29 115 39
114 34 153 64 78 59 -109 -6 -105 10 10 45 163 50 282 77 442 101 55 8 161 24
235 35 74 11 166 23 205 26 38 3 86 7 105 9 19 2 96 6 170 10 132 6 265 28
276 46 3 5 -1 9 -8 10 -7 0 -4 4 7 9 17 7 16 9 -10 9 -16 1 -35 5 -42 9 -6 4
46 8 115 10 127 3 148 6 123 21 -11 7 -11 9 0 14 19 7 -38 28 -71 26 -57 -3
-70 1 -70 21 0 11 -4 20 -10 20 -5 0 -10 -4 -10 -10 0 -10 -43 5 -68 23 -20
15 -84 14 -90 -1 -4 -11 -6 -11 -13 -1 -4 8 -31 13 -66 14 -32 0 -188 4 -348
7 -159 4 -337 3 -395 -2z m-1250 -425 c-7 -8 -18 -15 -24 -15 -6 0 -24 -7 -40
-15 -17 -9 -55 -24 -85 -34 -31 -11 -73 -26 -93 -35 -23 -10 -39 -12 -43 -6
-3 6 1 11 9 11 23 2 27 3 66 22 32 15 210 86 219 87 2 0 -2 -7 -9 -15z"/>
<path d="M5760 2239 c0 -5 4 -7 10 -4 5 3 7 0 4 -8 -5 -14 69 -94 84 -91 4 1
22 -11 40 -27 18 -16 37 -27 42 -24 14 8 -20 67 -36 61 -7 -3 -16 0 -20 6 -4
7 -3 8 4 4 7 -4 12 -3 12 3 0 5 -9 13 -20 16 -23 7 -26 21 -7 28 6 2 8 8 4 13
-4 5 -13 2 -18 -6 -8 -11 -12 -12 -16 -2 -2 6 -11 12 -19 12 -8 0 -14 7 -14
15 0 9 -9 15 -25 15 -14 0 -25 -5 -25 -11z"/>
<path d="M5616 2058 c-18 -87 -15 -128 9 -128 18 0 21 16 17 88 -4 62 -17 83
-26 40z"/>
<path d="M6948 2063 c-10 -2 -18 -9 -18 -14 0 -6 -6 -7 -12 -3 -7 4 -3 -4 10
-18 42 -46 112 -42 112 6 0 33 -36 44 -92 29z"/>
</g>
</svg>
