<?xml version="1.0" encoding="UTF-8"?>
<!-- Generator: visioncortex VTracer 0.6.12 -->
<svg version="1.1" xmlns="http://www.w3.org/2000/svg" width="1020" height="1020">
<path d="M0 0 C0.5530078125000273 0.20109374999998408 0.5530078125000273 0.20109374999998408 3.3515625 1.21875 C25.882570331856186 10.054439345825926 40.55043454921281 28.303135835904186 50.13623046875 49.9130859375 C52.70094285708706 56.10957024940092 54.44736524818177 62.4870582939717 56 69 C56.319687499999986 70.28003906250001 56.63937499999997 71.56007812500002 56.96875 72.87890625 C64.16443246180631 105.46923486796436 56.922323889678864 140.01909226334942 50.869140625 172.11865234375 C48.0602624809909 187.07488067897907 45.60639565633403 201.78784860958262 45.6875 217.0625 C45.69241455078122 218.18229248046873 45.697329101562445 219.30208496093746 45.702392578125 220.455810546875 C45.822642362255465 228.97381192223406 46.55630045570069 236.79473242442577 49 245 C49.158554687499986 245.53238281250003 49.158554687499986 245.53238281250003 49.9609375 248.2265625 C55.3914365605109 264.05588954872314 65.74957670588356 276.90500317113606 77 289 C77.88300781249995 289.96550781249994 78.76601562500002 290.931015625 79.67578125 291.92578125 C91.05027908748616 303.8526067518253 104.44159050242183 313.3691428478878 119 321 C119.46148437500005 321.25910156250006 119.46148437500005 321.25910156250006 121.796875 322.5703125 C138.9173432950456 331.80762731455843 158.81626431981408 336.7329651356565 178.109375 338.5078125 C178.92317626953127 338.5834643554688 179.73697753906254 338.65911621093755 180.575439453125 338.737060546875 C182.09560989885517 338.8660589898666 183.61784903040416 338.9734506466714 185.141357421875 339.053955078125 C190.74458661477206 339.4887281898781 193.19306528305572 341.10007145790894 197 345 C203.9029508303081 365.7088524909241 188.64649733133228 395.50710952511304 179.898681640625 413.62451171875 C171.93953396911752 429.5232062671298 161.8416323861809 443.7851362950855 150 457 C148.9344949774154 458.289188921231 147.8714455890963 459.5804177248582 146.8125 460.875 C144.17987952654403 463.9351400375215 141.24630521187942 466.53197251302504 138.16796875 469.13671875 C136.70248106792383 470.39624600108175 135.26764289185257 471.6921912704063 133.86328125 473.01953125 C101.69546460535537 503.33046204418974 56.48766701219938 519.9611885928194 13 524 C11.847578125000041 524.110859375 10.695156249999968 524.22171875 9.5078125 524.3359375 C-36.55044445223291 528.2002357023415 -81.74215548120037 517.527334508986 -121.6875 494.625 C-122.42508544921873 494.2082299804688 -123.16267089843751 493.7914599609376 -123.922607421875 493.362060546875 C-125.67000489910214 492.32911518839364 -127.3443679816479 491.1744175904828 -129 490 C-129 489.01 -129 488.02 -129 487 C-128.44352783203124 487.03029296875 -127.88705566406247 487.06058593750004 -127.313720703125 487.091796875 C-120.54452271336834 487.45167653502176 -113.77403959926573 487.7475711658765 -107 488 C-106.0344921875 488.0368994140624 -105.06898437500001 488.07379882812506 -104.07421875 488.11181640625 C-90.27817398253 488.57693202341056 -79.06354642068948 488.33786550576747 -68.00390625 479.0390625 C-61.06349991713449 471.9768946525228 -57.19221863854739 462.63154302988596 -56.90625 452.765625 C-57.21046532660347 446.28583854334624 -58.416320930576376 440.90168967897876 -61.16015625 435.0234375 C-62 433 -62 433 -62 430 C-61.431523437500005 429.70867187499994 -60.86304687500001 429.41734375 -60.27734375 429.1171875 C-49.924791311914646 423.62117468645886 -43.25419069743208 417.46578933316914 -38.9609375 406.296875 C-35.834755071085965 396.07104462504753 -35.97051329289013 385.9617865814661 -40 376 C-42.127423501069245 372.17851704437567 -44.49070715156847 368.57952136450956 -47 365 C-47.329999999999984 364.505 -47.329999999999984 364.505 -49 362 C-48.35933593750002 361.53851562499995 -47.718671874999984 361.07703125 -47.05859375 360.6015625 C-37.29855634184628 353.24153429057264 -31.698266818808122 345.3212853740645 -28.3125 333.625 C-26.84776702148565 321.3212429804797 -29.121986454754392 311.3561889599257 -36 301 C-38.17432825330343 298.4593702267016 -40.51460202484685 296.2300488681169 -43 294 C-44.33923556292666 292.672595139926 -45.67392471693648 291.3405520874637 -47 290 C-46.431523437500005 289.6223046875 -45.86304687500001 289.244609375 -45.27734375 288.85546875 C-36.83460146005103 282.8370197386341 -31.00873614377724 274.86296879202155 -28.4375 264.72265625 C-26.445950794516648 252.32881878373303 -28.30621070910979 241.32476542511574 -35.125 230.75 C-43.15669050774022 220.0525449768428 -53.84415062121491 214.5273290736593 -66.5 211.25 C-67.32242187500003 211.02957031250003 -68.14484375 210.80914062500005 -68.9921875 210.58203125 C-70.99275070288337 210.04699690504276 -72.99609662883768 209.52238506684148 -75 209 C-73.41225946383076 205.44847511646356 -71.2700075899076 202.61917917830579 -68.875 199.5625 C-67.97100261741366 198.39740809956243 -67.06738375259323 197.23202244703987 -66.1640625 196.06640625 C-64.5074980269427 193.93630936004627 -62.84967637929128 191.80720772551854 -61.1904296875 189.67919921875 C-14.32162349830054 129.427832729476 -14.32162349830054 129.427832729476 -17.32421875 96.5078125 C-18.957714838700895 88.02874031703232 -23.54584328733904 79.52376542564127 -30.375 74.12109375 C-42.8804184365157 66.10050543729426 -55.91485258209531 62.2108927160092 -70.75 65.0625 C-77.07477690699119 66.58158222008547 -83.16005152541646 68.6908573227268 -89.2275390625 71.017822265625 C-92.94646793613629 72.41881884533495 -96.01051794202596 73.34995456648892 -100 73 C-101.1032695004364 69.68402798192864 -101.10694185250406 68.26277140900999 -99.76953125 64.9765625 C-94.66480145058944 56.234330627955615 -88.8600816600632 48.43315757810245 -82.37939453125 40.6630859375 C-80.52736841994323 38.43016525250499 -78.73300699283391 36.15348731328817 -76.9375 33.875 C-57.25099803850691 9.328137595731675 -33.985820542595036 -13.15580150035936 0 0 Z " fill="#66517D" transform="translate(522,441)"/>
<path d="M0 0 C8.979543602768672 8.720518306534927 12.597005317921912 19.288696948064114 13 31.6875 C11.841095122924116 81.36924820855495 -20.79107180542519 126.8489141347601 -55.26416015625 159.7646484375 C-61.26881474984032 165.24991592290507 -67.84088150789239 170.01018289295405 -74.4375 174.75 C-75.5352131899233 175.55591203259053 -76.6328736053548 176.361895955485 -77.73046875 177.16796875 C-101.21195638788413 193.98297574037338 -127.8579743546835 206.16918452754533 -153.9867706298828 218.22532653808594 C-163.52019144789006 222.62870950520687 -172.98802410197868 227.16969459968038 -182.4375 231.75 C-183.16533691406244 232.10223632812495 -183.893173828125 232.45447265625 -184.64306640625 232.8173828125 C-189.27331964552036 235.06733316818054 -193.86918281429394 237.3768200171213 -198.4375 239.75 C-199.1903125 240.14090820312504 -199.943125 240.53181640624996 -200.71875 240.9345703125 C-231.83836226934545 257.2395295007001 -264.765354926516 279.5209712723381 -287.04296875 307.19921875 C-288.6673271176596 309.0055780552125 -290.48264582546494 310.31610760165245 -292.4375 311.75 C-292.59161971806907 302.9552619361532 -292.21658026633463 294.3662749150924 -291.25 285.625 C-291.1834521484375 285.0217590332031 -291.1834521484375 285.0217590332031 -290.8466796875 281.968994140625 C-283.2925880242417 217.00296085990703 -259.0780351930723 153.62060128309759 -220.4375 100.75 C-219.95861328125 100.09000000000003 -219.4797265625 99.43 -218.986328125 98.75 C-212.18420224022134 89.40923935718308 -205.015705161009 80.4697937589815 -197.4375 71.75 C-196.86 71.071953125 -196.28250000000003 70.39390624999999 -195.6875 69.6953125 C-186.58926402329098 59.09586758713391 -177.06933797097417 48.82315802152573 -166.4375 39.75 C-165.47843750000004 38.90308593750001 -164.51937499999997 38.05617187500002 -163.53125 37.18359375 C-127.2246353552141 5.389601126828495 -45.161598780329086 -38.177846391618345 0 0 Z " fill="#1E9E8A" transform="translate(912.4375,375.25)"/>
<path d="M0 0 C4.280112514562518 3.5373838471818146 8.384397199603313 7.236784075747266 12.37548828125 11.099609375 C13.425180670020893 12.113655676830092 14.481704340446981 13.120658690402792 15.54345703125 14.1220703125 C29.38085146842576 27.183353844095706 40.76688274327955 41.850530977593024 49.88525390625 58.55810546875 C50.22895019531251 59.185073242187514 50.572646484375014 59.81204101562503 50.9267578125 60.4580078125 C64.10011379558489 84.82037098910132 70.89181805311483 111.5301313497128 74.76025390625 138.80810546875 C74.86380187988277 139.5350561523437 74.96734985351566 140.26200683593754 75.07403564453125 141.010986328125 C77.1848647729094 156.07309836203422 78.12014593816644 171.09304855259182 78.13525390625 186.30810546875 C78.13626098632813 187.02855041503904 78.13726806640625 187.74899536132813 78.1383056640625 188.49127197265625 C78.10669458874719 222.60055197539577 73.08182480483117 256.2148072851774 66.88525390625 289.68310546875 C66.80153030395508 290.13568725585935 66.80153030395508 290.13568725585935 66.37783813476563 292.426025390625 C64.61890403883353 301.8864390376091 62.77992731478821 311.32929909750237 60.76025390625 320.73779296875 C60.601699218750014 321.4991555786132 60.44314453125003 322.26051818847657 60.27978515625 323.0449523925781 C59.119038997235634 328.32432037776437 59.119038997235634 328.32432037776437 56.88525390625 330.55810546875 C56.7500634765625 330.30230712890625 56.7500634765625 330.30230712890625 56.06591796875 329.0078125 C38.774683011232185 296.47623088881073 16.554763591223036 268.2489743103201 -9.36474609375 242.18310546875 C-9.918881835937498 241.62429687500003 -10.473017578124995 241.06548828125 -11.0439453125 240.48974609375 C-14.590666281950234 236.95667847715816 -18.276853306154067 233.6374479512413 -22.0615234375 230.36181640625 C-25.5599249833636 227.2885476047232 -28.924885072559732 224.0755840357719 -32.30224609375 220.87060546875 C-37.518583160288415 215.93686518977165 -42.75703499219259 211.0320504783773 -48.05224609375 206.18310546875 C-56.18718282418098 198.70637158714328 -63.964452641926925 190.9883897236772 -71.11474609375 182.55810546875 C-71.94748046874997 181.60291015625 -72.78021484375 180.64771484375 -73.63818359375 179.66357421875 C-92.8013770559105 157.56188822676637 -107.96047579650823 132.3895827603023 -117.11474609375 104.55810546875 C-117.37739257812501 103.7738720703125 -117.6400390625 102.98963867187501 -117.91064453125 102.181640625 C-129.9440168396811 65.85097083100379 -138.32859686587835 19.195608885481562 -120.86474609375 -16.81689453125 C-115.62339198104769 -26.665298755754378 -109.78621309041199 -33.593698856696136 -99.11474609375 -37.44189453125 C-64.92932141059305 -47.28315315215883 -25.16142642333432 -20.35537996677516 0 0 Z " fill="#1E9E8A" transform="translate(346.11474609375,201.44189453125)"/>
<path d="M0 0 C13.45498343322788 12.236418895878927 17.117004564540252 32.38202435673193 18.15185546875 49.7958984375 C18.247834676666457 53.28596103417078 18.274310332909636 56.766488497876594 18.2578125 60.2578125 C18.25535522460939 60.88598876953125 18.25535522460939 60.88598876953125 18.242919921875 64.06494140625 C18.099599142880834 75.66436978618347 16.974807329182795 86.90717524313561 14.9453125 98.3203125 C14.784340820312536 99.24440917968752 14.623369140624959 100.16850585937499 14.45751953125 101.12060546875 C6.880117946722862 143.17118083264376 -12.668250414766817 182.27161230691524 -42.0546875 213.3203125 C-43.18610297856969 214.6063633514949 -44.31126696066599 215.89794467437252 -45.4296875 217.1953125 C-53.254322788855916 226.13522385943952 -61.35514062170796 234.71899845081975 -69.7421875 243.1328125 C-70.53786132812502 243.93307861328128 -71.33353515625004 244.7333447265625 -72.1533203125 245.557861328125 C-75.66150778501117 249.05693946465647 -79.18354682311121 252.48458290226608 -82.9453125 255.7109375 C-87.74698569927943 259.8451643935733 -92.205226103251 264.32074090846504 -96.673095703125 268.808349609375 C-98.11493971240714 270.2555563520813 -99.56205865606762 271.6973327594244 -101.009765625 273.138671875 C-105.69463351784032 277.8202803979187 -110.25349697215438 282.5614135849071 -114.563232421875 287.592529296875 C-116.6896815843096 290.0559244061482 -118.94111547183616 292.3964347963099 -121.1796875 294.7578125 C-128.05275708538352 302.1558663293943 -134.06156658903728 310.2053080239575 -140.0546875 318.3203125 C-140.5073095703125 318.931650390625 -140.95993164062497 319.54298828125 -141.42626953125 320.1728515625 C-151.5814661336617 333.95682815584547 -160.7693355301443 348.34020621639274 -169.0546875 363.3203125 C-169.71468749999997 363.3203125 -170.37468750000005 363.3203125 -171.0546875 363.3203125 C-177.54833845596602 328.894227365317 -183.9932858075333 294.2451724439183 -187.0546875 259.3203125 C-187.15620117187495 258.1935107421875 -187.25771484375002 257.066708984375 -187.3623046875 255.90576171875 C-193.3641154113633 187.5286657274815 -184.5411373008758 113.59056666365143 -139.0546875 59.3203125 C-138.55791503906255 58.72202636718748 -138.061142578125 58.12374023437502 -137.54931640625 57.50732421875 C-128.23544132163636 46.3182516734679 -118.51675514727981 36.355657436337765 -107.0546875 27.3203125 C-106.0556640625 26.515937500000007 -105.056640625 25.711562500000014 -104.02734375 24.8828125 C-77.94251797402944 4.1037894361546705 -31.145647846877978 -25.461271053531448 0 0 Z " fill="#1E9E8A" transform="translate(785.0546875,171.6796875)"/>
<path d="M0 0 C2.6252477609343714 2.2747175201277514 5.203714810649956 4.587229945279603 7.7578125 6.94140625 C9.69745049161537 8.722223709200875 11.675184228692558 10.427918244369494 13.6875 12.125 C23.116301889976512 20.365619537987584 32.089262495541334 29.35051607706589 39.77734375 39.2421875 C41.72156563913876 41.654526083008705 43.733586831551406 43.943287734859496 45.80859375 46.2421875 C49.82800140541406 50.74001857674676 53.522694119337075 55.41419502133414 57.125 60.25 C57.44589599609378 60.68066772460941 57.44589599609378 60.68066772460941 59.06982421875 62.860107421875 C90.98449328534588 106.0790289108586 113.91036905143625 154.95946232824178 126.0625 207.375 C126.2666552734375 208.25397949218745 126.47081054687499 209.13295898437502 126.68115234375 210.03857421875 C127.71891194301026 214.80066493167647 128.20356902411766 219.1274769066032 128 224 C120.34555964988971 221.34415750898847 112.7067297580843 218.65483172521544 105.125 215.796875 C80.09265061316586 206.36405741496435 54.702189921846696 198.1154453819986 29.213134765625 190.01318359375 C-58.281681876961045 162.19615015698537 -58.281681876961045 162.19615015698537 -90 136 C-90.55606933593748 135.54544433593753 -91.11213867187502 135.09088867187506 -91.68505859375 134.62255859375 C-104.69899231618984 123.93345833990043 -116.6777237501845 112.33607953443311 -127 99 C-127.40476562499998 98.49210937499998 -127.40476562499998 98.49210937499998 -129.453125 95.921875 C-151.21549278105272 68.44866638614502 -173.5665170636247 29.36842752203222 -170 -7 C-168.38801765139564 -18.21126462272582 -163.90724992455802 -27.344064927530667 -154.875 -34.375 C-107.88486709325628 -65.61639626497401 -38.053645234603295 -31.017684787580265 0 0 Z " fill="#1E9E8A" transform="translate(265,408)"/>
<path d="M0 0 C1.5434850477033706 1.28578543516943 3.0629811769725848 2.600700247918809 4.5625 3.9375 C4.994980468749986 4.322929687499993 4.994980468749986 4.322929687499993 7.18359375 6.2734375 C42.045751882012496 39.207050714071386 58.46717108137568 95.0369394196436 59.84765625 141.62109375 C61.029924066458534 200.48270946385236 44.506517551131765 257.6641104103342 20.5625 310.9375 C18.022678638459183 308.42183321765907 15.64921771235197 305.8821380167032 13.375 303.125 C4.022555078223377 292.4421648239579 -8.175031526186785 285.90469692957566 -22.375 284.56640625 C-38.19788699084006 284.0887414875046 -52.65349604723963 288.13189644251565 -64.6640625 298.94140625 C-66.31111591671083 300.5654927863981 -67.89952226212222 302.2105557141236 -69.4375 303.9375 C-72.55661390308683 301.3358533328079 -73.66765356303216 298.42388090376056 -75.15234375 294.69140625 C-75.40401809692383 294.0617495727539 -75.65569244384767 293.4320928955078 -75.91499328613281 292.7833557128906 C-76.74539968144222 290.692834774784 -77.56161976520531 288.5972005756488 -78.375 286.5 C-78.65895629882812 285.7722134399414 -78.94291259765623 285.0444268798828 -79.2354736328125 284.2945861816406 C-104.96100070239999 218.1797662463121 -126.39776595521693 142.89743036936179 -98.4375 73.9375 C-98.15567871093748 73.2338330078125 -97.87385742187502 72.53016601562501 -97.58349609375 71.80517578125 C-86.11728604500564 43.58601609750971 -66.78748716656901 8.212261552409956 -37.79296875 -5.09375 C-24.90241434471187 -10.395337881445208 -11.19129979205752 -8.259773474845986 0 0 Z " fill="#1E9E8A" transform="translate(536.4375,62.0625)"/>
<path d="M0 0 C2.081272115425179 0.43959811351157896 4.162824839593952 0.8778693894109892 6.24462890625 1.31494140625 C9.66307776171243 2.0336469832157036 13.08105241082086 2.7543406476747805 16.497894287109375 3.48065185546875 C25.829850134232686 5.464074391271652 35.1726069977712 7.390380999010176 44.519893646240234 9.300008773803711 C49.41430987332785 10.300879621050854 54.307619298893314 11.30714723839992 59.20092964172363 12.313408851623535 C63.23891258423578 13.143576538358047 67.27732234846059 13.971517821930433 71.31683349609375 14.794219970703125 C75.16389291230234 15.578163462273096 79.00913525611179 16.370514481195187 82.85325622558594 17.168737411499023 C84.27484111862134 17.46249622262212 85.69701605144701 17.753417289991148 87.11982727050781 18.04117774963379 C114.12525928146812 23.50910230723673 114.12525928146812 23.50910230723673 122.5 35.375 C126.70769283711081 42.23536875615889 128.06254689940158 48.97413868162607 127.125 56.9375 C125.23392709375082 64.46090356215893 122.65241653564829 70.88511747690757 116.05078125 75.3359375 C104.89045472721887 81.89191878502936 95.20979495176141 81.65164343500226 82.92138671875 79.089111328125 C81.94264587402347 78.89231781005856 80.96390502929688 78.69552429199223 79.95550537109375 78.49276733398438 C76.736807515549 77.84338313622504 73.52079756472779 77.18160225287625 70.3046875 76.51953125 C68.04109000646025 76.05996651771284 65.77734411241192 75.6011321936902 63.513458251953125 75.14299011230469 C57.553091278543775 73.93454321724221 51.594969384344154 72.71535398978142 45.63720703125 71.494140625 C40.835013938911175 70.51165408013162 36.031294728770035 69.53676424737296 31.227460861206055 68.5623369216919 C25.419335551592837 67.3840248722106 19.61191516164081 66.20225848383143 13.8046875 65.01953125 C12.728027000427232 64.80032327651975 11.651366500854465 64.5811153030395 10.54207992553711 64.35526466369629 C4.404471059270406 63.10391647120662 -1.7298162806422965 61.83772050007747 -7.861732482910156 60.558780670166016 C-10.962771323795891 59.919403157764805 -14.067658142043967 59.30160592152356 -17.17327880859375 58.684906005859375 C-19.21312615566228 58.26794970959941 -21.252864226212182 57.85045836772383 -23.29248046875 57.432373046875 C-24.210661182403555 57.255385332107494 -25.12884189605711 57.0783976173401 -26.074846267700195 56.89604663848877 C-36.55253047566771 54.7091909961199 -45.1346743037559 50.37458204934023 -51.875 41.9375 C-56.52251790970615 34.636182008519654 -58.01887371411186 27.034928526918293 -56.4140625 18.48046875 C-54.20232372392695 10.010810260449603 -49.93661859311811 3.961085582430769 -42.78125 -1.0546875 C-29.624610175796647 -8.010451997222276 -13.63504257153079 -2.9461366584675943 0 0 Z " fill="#66517D" transform="translate(353.875,644.0625)"/>
<path d="M0 0 C16.10530653707019 10.80540424402011 23.99022565072687 28.308906035386485 27.75390625 46.78515625 C30.392305095940742 77.39058286291205 18.149330261218665 104.19363666950511 -1.18359375 127.34765625 C-4.368011894267511 131.0950628957704 -7.632702677194857 134.7653086148615 -10.93359375 138.41015625 C-11.746992187500041 139.32023437500004 -12.560390624999968 140.23031249999997 -13.3984375 141.16796875 C-13.744550781250041 141.53792968749997 -13.744550781250041 141.53792968749997 -15.49609375 143.41015625 C-16.074882812499993 144.02890624999998 -16.653671874999986 144.64765625 -17.25 145.28515625 C-18.93359375 146.41015625 -18.93359375 146.41015625 -20.80078125 146.421875 C-23.921771126417866 144.94140544323767 -26.118548784624636 142.66701656284283 -28.49609375 140.22265625 C-28.757612304687484 139.9564245605469 -28.757612304687484 139.9564245605469 -30.0810546875 138.609130859375 C-52.40239393193622 115.44452608959958 -67.55846753624269 87.07797178834244 -67.1484375 54.53515625 C-66.61501331488734 36.56439364098708 -59.01127454497424 17.940762748770112 -45.93359375 5.41015625 C-32.1998057678361 -6.455254215155776 -16.02493796764213 -8.684620176871292 0 0 Z " fill="#FFFFFF" transform="translate(527.93359375,136.58984375)"/>
<path d="M0 0 C2.1432223107102573 0.43262817921743135 4.286649338480856 0.8642432860646068 6.430267333984375 1.2949066162109375 C12.0712331648935 2.4310984998186314 17.709267762045783 3.581232079852157 23.3468017578125 4.73431396484375 C28.962532231501484 5.880326291391725 34.58097970690574 7.012846331085939 40.19921875 8.146484375 C46.75594914358692 9.470116918601207 53.31182656159211 10.797523420706511 59.86431884765625 12.141998291015625 C61.97627234086502 12.575323008346231 64.08823108523626 13.008622133231597 66.2001953125 13.44189453125 C67.22105350494382 13.651325016021701 68.2419116973877 13.860755500793402 69.29370498657227 14.076532363891602 C74.89185354097714 15.220466791339504 80.49443874317501 16.333254443490887 86.10746955871582 17.4017915725708 C89.2642636467109 18.003178527013006 92.41846742961127 18.61753502721217 95.57255172729492 19.232954025268555 C96.98258993238301 19.50395100284345 98.39394674846005 19.768200198329396 99.80669021606445 20.024721145629883 C110.46277627569208 21.960587303083912 120.0818062717102 25.072371122121353 126.8984375 33.98046875 C132.19854043563987 41.99687444015535 133.25769470700777 49.276018909382515 132.1484375 58.87109375 C131.2179943360506 62.17986357282007 129.94236181616628 64.94812615792489 128.1484375 67.87109375 C127.6121875 68.75796875000003 127.07593750000001 69.64484375000006 126.5234375 70.55859375 C119.39476050682958 77.49967398019226 111.9084029597712 80.21831761309386 102.14743041992188 80.130126953125 C94.16765080643142 79.75698534644175 86.32678289237276 77.82924896785903 78.52734375 76.21484375 C76.61934785832364 75.82939185363773 74.71113425049396 75.44501629739204 72.80271911621094 75.0616455078125 C67.78288205380125 74.05005891703092 62.76627860019812 73.02324196244786 57.75018310546875 71.9932861328125 C52.78400263200922 70.97661289761925 47.81468925313527 69.97550844828243 42.845703125 68.97265625 C34.099422478889096 67.2049006953107 25.357589594884303 65.4163144739033 16.618494033813477 63.61338806152344 C11.012883222265827 62.45756019081739 5.404962220416451 61.314086640548226 -0.20544719696044922 60.181785583496094 C-3.7131432902655206 59.47200904086401 -7.219048311040865 58.75367109099841 -10.724565505981445 58.03321838378906 C-12.348589908952874 57.701231366172124 -13.973324272302932 57.37269480859527 -15.598814010620117 57.04795837402344 C-29.940961531828975 54.178625570041504 -42.23153526887023 50.64150446278484 -50.8515625 37.87109375 C-54.77639211103707 30.60289076659808 -55.8825343920949 22.73540871959574 -53.7890625 14.68359375 C-51.08550422582016 7.0113337827328905 -46.74442105683181 1.9060200035449952 -39.78125 -2.21875 C-27.801042815240805 -7.869333550706301 -12.216545463769535 -2.515995527666064 0 0 Z " fill="#66517D" transform="translate(347.8515625,715.12890625)"/>
<path d="M0 0 C9.126086621662353 6.338041183165899 14.502442300773168 15.727766697068347 16.99609375 26.4296875 C20.13860847706917 44.8034898231341 15.548283829221532 63.14937023277025 5.79296875 78.81640625 C3.869927289291809 81.5306202801728 1.864812221738589 84.11599732610443 -0.25390625 86.6796875 C-0.8919921875000227 87.46859374999997 -1.5300781250000455 88.2575 -2.1875 89.0703125 C-21.096378896248098 111.44138048992733 -50.349887161399465 121.96863152854496 -78.25390625 127.6796875 C-80.48399517167866 121.46127834055864 -82.12590428168437 115.28790976021207 -83.37890625 108.8046875 C-83.55067382812501 107.92482177734377 -83.72244140625003 107.04495605468753 -83.8994140625 106.138427734375 C-85.06858604629747 99.99573434571482 -86.03312355487083 93.93839694453021 -86.25390625 87.6796875 C-86.29386718750004 86.69484375000002 -86.33382812499997 85.70999999999998 -86.375 84.6953125 C-86.93624228378667 57.62362587028775 -78.45026666256649 32.63599444218835 -59.58984375 12.890625 C-43.519714180109645 -2.438518768396847 -20.696662180359226 -12.123867967004173 0 0 Z " fill="#FFFFFF" transform="translate(739.25390625,233.3203125)"/>
<path d="M0 0 C4.228090231598117 3.4642367800880436 8.133560716692386 7.13898349268581 12 11 C12.743789062500014 11.732187500000009 13.487578125000027 12.46437499999999 14.25390625 13.21875 C32.366054919956866 32.21701161858488 36.835799276219404 57.58734550903529 36.359375 82.875 C35.854051686107596 96.46746479107759 33.09406923423683 110.03544742491675 29 123 C-2.2642040636317233 116.47987454113377 -35.00464209570583 104.21268495676901 -53.779541015625 76.780029296875 C-64.77587441565367 59.87632556092535 -69.23327608747434 41.50763241324762 -66.53125 21.53515625 C-64.36361282878607 11.509834333135473 -59.198884999511506 2.317964323152978 -51 -4 C-34.33499969914419 -14.056465698792294 -15.692942270567357 -10.75833436112552 0 0 Z " fill="#FFFFFF" transform="translate(330,238)"/>
<path d="M0 0 C10.914930484061927 8.453922573032855 18.714349442671505 18.04813995175482 25.4990234375 30.090576171875 C26.03398437499999 31.023857421874993 26.568945312499977 31.957138671874986 27.1201171875 32.918701171875 C34.115834984172466 45.92891920412819 37.57333835603799 59.976625861311334 39.9365234375 74.465576171875 C40.024582519531236 75.00355834960936 40.024582519531236 75.00355834960936 40.47021484375 77.72607421875 C41.19257260785156 82.53047799614575 41.67582338152931 86.32220211686172 40.4990234375 91.090576171875 C8.400641972272751 95.62974122756373 -26.3367166912185 94.94436313829965 -53.5009765625 75.090576171875 C-67.36306017744704 64.51097538476313 -78.27096381942948 49.473378695592146 -81.5009765625 32.090576171875 C-82.65732594948088 20.862385376791565 -82.42570474909772 9.659995365761517 -75.4423828125 0.344482421875 C-55.23274343857548 -23.136869228435273 -22.650083338191934 -16.83672284369328 0 0 Z " fill="#FFFFFF" transform="translate(235.5009765625,426.909423828125)"/>
<path d="M0 0 C7.028743749682803 6.370219000668499 11.517587792995755 14.63374054691036 12.23828125 24.14453125 C12.632596482688086 43.63200511811067 5.834778445392999 59.76466702329992 -7.64453125 73.80078125 C-28.921899642747917 93.66671558684425 -57.16165063167375 99.81386968669563 -85.4765625 99.23828125 C-94.02516844150853 98.94113719320956 -102.51291639202793 98.03096894153236 -111 97 C-110.44108828284516 64.83717118554438 -99.2222699674412 34.75072649969144 -76.7578125 11.69921875 C-56.57522840434524 -7.337467713850231 -24.066702282961387 -17.87812169591416 0 0 Z " fill="#FFFFFF" transform="translate(854,421)"/>
<path d="M0 0 C0.9397265625000273 0.18703994750978836 1.8794531249999977 0.3740798950195767 2.84765625 0.5667877197265625 C5.936464527127441 1.1837681081807432 9.022625249745545 1.8130414119817715 12.10888671875 2.442626953125 C14.282807195775547 2.8797586205549806 16.456872066253254 3.3161727467376068 18.631072998046875 3.7519073486328125 C24.354679931434475 4.901222769334595 30.076072248482205 6.061224119045164 35.797119140625 7.22320556640625 C40.405595281951946 8.1573234752708 45.01560112202611 9.08374700757497 49.62571907043457 10.009722709655762 C55.204004750478475 11.130399541535667 60.78152451083304 12.254864374722274 66.35888671875 13.380126953125 C67.39125583648683 13.58826208114624 68.42362495422361 13.79639720916748 69.48727798461914 14.010839462280273 C75.39799922791872 15.204246649270772 81.30490918409487 16.414578241042136 87.20926666259766 17.63906478881836 C90.29583227901765 18.270463371279448 93.38675519658887 18.876857718956558 96.47845458984375 19.482574462890625 C98.53622161418696 19.89936525568487 100.59386348452489 20.316774530293856 102.6513671875 20.73486328125 C103.58959886550906 20.912674283981346 104.52783054351806 21.090485286712692 105.49449348449707 21.27368450164795 C115.474350155965 23.343664956085604 122.16233571123689 28.051241351599174 128.16357421875 36.243408203125 C132.18154076477913 42.72399940639775 132.03510442250212 49.7897498891308 131.16357421875 57.243408203125 C128.8080229158037 64.96961647678881 123.956154245638 71.26619939854311 117.10107421875 75.524658203125 C106.92038478994499 80.61500291752748 96.70105779238264 79.22450847493769 85.92529296875 77.032470703125 C84.66583358764649 76.78885803222659 83.40637420654298 76.54524536132817 82.10874938964844 76.29425048828125 C78.71930393455716 75.63837866051608 75.33372650057368 74.96430178426999 71.94861602783203 74.28646087646484 C68.42586831256631 73.58435611102368 64.89980169169587 72.89933891199678 61.3740234375 72.212646484375 C55.683753267061604 71.10231056187467 49.995452942916245 69.9824074051262 44.30859375 68.854736328125 C36.90836578676499 67.3875907237732 29.50374546814544 65.94380258193905 22.09716796875 64.509033203125 C14.360182543485337 63.00787895762414 6.623546077906269 61.5050808183654 -1.10986328125 59.985595703125 C-1.8696095275878974 59.83713195800783 -2.629355773925795 59.68866821289066 -3.4121246337890625 59.53570556640625 C-5.555380783992462 59.11337696226383 -7.696405763522819 58.681831391386595 -9.83642578125 58.243408203125 C-10.231372375488263 58.16273101806644 -10.231372375488263 58.16273101806644 -12.23004150390625 57.75445556640625 C-13.018766479492172 57.58726013183593 -13.80749145507815 57.420064697265616 -14.6201171875 57.247802734375 C-15.328104553222659 57.09892608642576 -16.036091918945317 56.950049438476526 -16.765533447265625 56.796661376953125 C-25.027504107207847 54.58941891693905 -31.984859252552155 49.31884262160793 -36.73486328125 42.255126953125 C-40.811282304652536 34.81060285010267 -42.09354166195817 26.762067855542 -40.21533203125 18.516845703125 C-37.751752195488905 10.567694766402496 -33.699998600838 5.008047825209701 -26.41064453125 0.864501953125 C-17.559681455866098 -3.0860834319996684 -9.260367793472767 -1.9145131616390927 0 0 Z " fill="#66517D" transform="translate(339.83642578125,783.756591796875)"/>
<path d="M0 0 C1.5840386520407037 0.3041383529060795 3.1681362451098494 0.6079698644977043 4.752288818359375 0.9115142822265625 C8.045335068282156 1.5434304260812723 11.337818612595072 2.1781734920995177 14.6298828125 2.815185546875 C18.81199996841565 3.6243088344024272 22.995224335290914 4.4275246155434616 27.178857803344727 5.228766441345215 C30.441220159325326 5.854027333762019 33.70309571036472 6.481797573655854 36.96482467651367 7.110353469848633 C38.505805737206174 7.407136092492692 40.046901772875685 7.703322479586177 41.5881233215332 7.99885368347168 C71.99481442002599 13.83677703598039 71.99481442002599 13.83677703598039 77.3359375 20.91015625 C80.67584329319732 26.72406633445462 80.62321801878738 32.28339168327125 80.0234375 38.84765625 C77.98804160940938 45.61755997305147 73.6300141594071 50.58123397524332 67.4482421875 53.965576171875 C62.729835954872954 56.253747936218815 58.649195708831144 56.37104511567793 53.4765625 56.2109375 C52.53830627441408 56.19597732543946 51.60005004882811 56.181017150878915 50.63336181640625 56.16560363769531 C38.35892954306428 55.90056924603721 26.099205516113216 55.119317696055646 13.85107421875 54.303466796875 C10.423157867017437 54.07547428211399 6.994401818114227 53.864959432318074 3.5651206970214844 53.65865612030029 C0.23280266174509734 53.455067495372305 -3.098328617465029 53.234344924755874 -6.4296875 53.015625 C-7.643359985351594 52.9436137390137 -8.857032470703132 52.8716024780274 -10.10748291015625 52.79740905761719 C-22.550213881170862 51.93300651311415 -34.63741337227805 49.06259925990503 -43.3515625 39.47265625 C-49.227887378819446 31.96494372776897 -51.78517928781315 24.33746081641118 -50.9765625 14.84765625 C-49.677314963671904 7.815031970792916 -46.4590998697941 2.448687611317382 -40.9765625 -2.15234375 C-30.242706466506263 -9.01853505887459 -11.780438707637984 -2.283935117173769 0 0 Z " fill="#66517D" transform="translate(369.9765625,860.15234375)"/>
<path d="M0 0 C6.780255934350521 5.2549962514034405 10.387003760790094 11.303266900048442 12.22265625 19.72265625 C14.152110248507256 36.979548554405824 8.25483769334187 52.90972681662899 -2.24755859375 66.6455078125 C-11.484033150093182 78.1559731553009 -11.484033150093182 78.1559731553009 -16.77734375 81.72265625 C-31.2205015657932 66.98744928719628 -43.52392058204555 48.93672121401795 -44.15234375 27.59765625 C-43.82053773330762 17.404575417210367 -40.587839756007725 9.375968129006708 -33.77734375 1.72265625 C-23.516252166121205 -6.885371463784367 -11.029182754391627 -7.393572591295822 0 0 Z " fill="#66517D" transform="translate(523.77734375,177.27734375)"/>
<path d="M0 0 C5.614417273805884 3.6471608274723053 9.544473935360088 8.377721281211109 11.578125 14.8359375 C13.484846990470942 24.616715117786157 12.039138447347796 33.44518356613048 7 42 C4.2614828495010215 45.63400184609941 1.261307569950418 48.832662309183775 -2 52 C-2.6161718749999636 52.62519531250001 -3.232343750000041 53.25039062500002 -3.8671875 53.89453125 C-14.737349044997131 64.22818267582346 -30.215869622819582 71.22440912031334 -45 73 C-46.97699924316203 66.34783273527262 -48.59834070704028 59.941174656459225 -49 53 C-49.04124999999999 52.31808593749997 -49.08249999999998 51.636171875 -49.125 50.93359375 C-49.58988901616408 35.15642276393294 -45.62561236773081 18.75435461116433 -35 6.73828125 C-25.126963700358033 -2.799777032332713 -12.62380027420852 -6.039444016078164 0 0 Z " fill="#66517D" transform="translate(718,267)"/>
<path d="M0 0 C11.621925131353407 8.17322350575455 17.28040306928034 21.025877656841885 19.71484375 34.6640625 C20.57841765469118 47.2539232741492 19.910075459561426 59.45371275274738 16.71484375 71.6640625 C-3.308622277775612 68.63568276216483 -22.346632051211316 58.48329950126288 -34.62890625 42.19921875 C-39.52208846004356 34.70941862189085 -42.42693498409403 25.990639747930743 -40.80859375 17.0234375 C-38.37583680248616 8.094417494839263 -34.080574510989265 2.5570930653772734 -26.28515625 -2.3359375 C-17.56781878391041 -6.416393335190833 -8.085299473856537 -4.726790461639212 0 0 Z " fill="#66517D" transform="translate(330.28515625,268.3359375)"/>
<path d="M0 0 C0.8868750000000034 0.6806250000000205 1.7737500000000068 1.361249999999984 2.6875 2.0625 C3.6362499999999898 2.7431250000000205 4.585000000000008 3.423749999999984 5.5625 4.125 C17.642472051903695 14.56487140778097 26.312638121459713 33.9031077339713 27.9609375 49.6796875 C28 51.87499999999994 28 51.87499999999994 27.6875 55.0625 C24.542852664434804 58.207147335565196 14.034057908663527 57.04563911795333 9.6875 57.0625 C-6.354991186129126 56.538534373798086 -23.653663768607714 52.5949589349068 -35.40234375 41 C-41.29118296444577 34.02801276936657 -45.12820824334236 25.434887209057536 -44.6328125 16.1875 C-43.68506573785905 9.900009285308897 -41.182723782951 4.2985177375052785 -36.3125 0.0625 C-23.956626758027625 -8.115806081448625 -12.75919750976064 -7.462926845331708 0 0 Z " fill="#66517D" transform="translate(230.3125,446.9375)"/>
<path d="M0 0 C5.218290916330716 3.330823989147234 8.109535210554213 7.595745068496342 10.25 13.375 C11.990320830992573 21.78655068313094 10.951845711757642 28.361889605500664 7 36 C-2.2284213135565096 48.82750562584346 -14.817253063856356 55.07507595171336 -30.11328125 57.7890625 C-40.47689340984505 59.35406590002793 -50.5924545688074 58.9007700139278 -61 58 C-62.30777349319021 54.07667952042942 -61.3816141890037 51.14603591941409 -60.4375 47.25 C-60.2555004882812 46.49646240234375 -60.073500976562514 45.742924804687505 -59.885986328125 44.966552734375 C-56.90947928060962 33.194979276256845 -52.72461707066748 22.521039645241274 -45 13 C-44.67966796874998 12.598457031250007 -44.67966796874998 12.598457031250007 -43.05859375 10.56640625 C-31.41360790830481 -3.3118645476367874 -16.645442274703214 -7.6988488989855455 0 0 Z " fill="#66517D" transform="translate(823,445)"/>
<path d="M0 0 C4.331690446964103 2.0432502108321273 7.156969331451137 4.6231228534655315 9.3671875 8.94140625 C10.80894348897516 13.631563078332647 10.26487668127288 18.555575619921115 8.015625 22.90234375 C5.205602257248756 26.63383498956256 2.333507251774222 27.70534223183506 -2 29 C-2.0501123046875023 29.681027832031248 -2.1002246093750045 30.362055664062495 -2.15185546875 31.063720703125 C-2.383861758379851 34.14740520803491 -2.62927062416793 37.22987999422594 -2.875 40.3125 C-2.953632812500018 41.384355468750016 -3.0322656249999795 42.45621093750003 -3.11328125 43.560546875 C-3.1970703124999886 44.58857421875001 -3.2808593749999773 45.61660156250002 -3.3671875 46.67578125 C-3.4405029296875114 47.62364501953124 -3.5138183593750227 48.57150878906248 -3.58935546875 49.548095703125 C-4 52 -4 52 -6 55 C-6.990000000000009 54.670000000000016 -7.980000000000018 54.34000000000003 -9 54 C-9 45.420000000000016 -9 36.84000000000003 -9 28 C-10.319999999999993 27.670000000000016 -11.639999999999986 27.339999999999975 -13 27 C-16.784745782131893 22.9512021865566 -18.828459467366997 20.272912057386975 -19.25 14.6875 C-18.887165941037438 9.335697630301922 -17.418939491319804 6.280506370215448 -13.4375 2.6875 C-8.95640797933845 -0.4147944758426547 -5.367405064002014 -0.6335891306579242 0 0 Z " fill="#66517D" transform="translate(514,370)"/>
<path d="M0 0 C3.843020198823524 2.051781970558352 6.401714608904626 4.955512554927623 8 9 C8.24137177658963 13.497560770453617 7.55333627047014 17.103213630617404 5.1875 20.9375 C1.9414796188488026 23.99803350222828 0.2325098089097537 24.99561904096356 -4.296875 25.01171875 C-8.380977844028735 26.101674466813563 -8.72738883656723 26.449535301688513 -10.87109375 29.81640625 C-11.751263612753405 31.384829238515465 -12.606138110359325 32.96766864005747 -13.4375 34.5625 C-13.882871093750055 35.36880859375003 -14.328242187499995 36.17511718750001 -14.787109375 37.005859375 C-15.880626803228779 38.99300394887808 -16.949881459390895 40.98968229759947 -18 43 C-19.32000000000005 42.670000000000016 -20.639999999999986 42.34000000000003 -22 42 C-21.304840462100515 36.67385118756431 -18.732857318971924 32.250515903663654 -16.17578125 27.615234375 C-15.203125 25.69140625 -15.203125 25.69140625 -14 22 C-15.2734375 18.74609375 -15.2734375 18.74609375 -17 16 C-17.558783661445773 10.78468582650595 -16.8955043144324 7.39317895982839 -14 3 C-9.914679919183868 -0.6046941889554773 -5.21470223803567 -0.9915278903307012 0 0 Z " fill="#66517D" transform="translate(547,387)"/>
<path d="M0 0 C3.4996284152434782 2.389990137239465 5.612275228530052 5.106610699321891 6.46875 9.2890625 C6.665047707828933 14.180147053404198 5.638247283852252 16.87056946875299 3 21 C3.592005634400607 26.281800269417886 5.950645703854775 31.063196979700763 7.94140625 35.94140625 C9 39 9 39 9 43 C8.339999999999975 43.16500000000002 8.339999999999975 43.16500000000002 5 44 C4.769257812499973 43.43490722656247 4.538515625000002 42.869814453125 4.30078125 42.28759765625 C3.23138695383102 39.71925493210108 2.1166399286566957 37.17313570604938 1 34.625 C0.6377734375000159 33.73554687500001 0.275546874999975 32.84609375000002 -0.09765625 31.9296875 C-2.9743594972202914 25.493673455371493 -2.9743594972202914 25.493673455371493 -5.994384765625 24.0400390625 C-7.975484812939044 23.58957275870722 -9.988872645163156 23.28817364721175 -12 23 C-14.594575589100486 20.79185056246763 -16.478044096156623 19.04391180768681 -18 16 C-18.4238072408408 9.536939577177975 -17.799050202120327 6.26555856914041 -13.5 1.25 C-9.575720802831654 -2.0202326643069455 -4.596938888332431 -1.3759544971879336 0 0 Z " fill="#66517D" transform="translate(482,384)"/>
<path d="M0 0 C3.1572049772887567 2.671481134628948 4.2811414220698225 4.957751383887569 4.625 9 C4.42400600996308 12.530794424981991 3.9102872994080826 13.109898058225099 1.5 16.0625 C-1.0893048071280305 17.872559047636912 -2.9794059659739105 18.31939064255215 -6.125 18.125 C-9.15400283084233 17.50411244655146 -10.07223323661674 16.936795917960353 -12.5 14.8125 C-14.278685010915524 11.47746560453345 -14.54388602413485 9.729504165496166 -14 6 C-12.737113412588258 3.22164950769411 -11.647782897285992 1.5089722764389535 -9.25 -0.375 C-5.817920407858537 -1.3283554422615111 -3.4217738418353747 -0.9165465647773203 0 0 Z " fill="#FFFFFF" transform="translate(505,463)"/>
</svg>
